<svg xmlns="http://www.w3.org/2000/svg" viewBox="0 0 415.82 374.56"><defs><style>.cls-1{fill:#aae0fe;}.cls-2{fill:#77ccfe;}.cls-3{fill:#d8f2fe;}.cls-4{fill:#e0422d;}.cls-5{fill:#ff5b42;}.cls-6{fill:#003672;}.cls-7{fill:#ffbb45;}.cls-8{fill:#ff9a30;}.cls-9{fill:#ffe187;}.cls-10{fill:#ffa599;}.cls-11{fill:#ffe1ad;}.cls-12{fill:#fff;}.cls-13{fill:#ffe5b2;}.cls-14{fill:#6593c7;}.cls-15{fill:#002854;}.cls-16{fill:#fab45a;}.cls-17{fill:#ffedcc;}.cls-18{fill:#8ccdf5;}.cls-19{fill:#4c77ad;}.cls-20{fill:#f8c79f;}.cls-21{fill:#d9a275;}.cls-22{fill:#dd675b;}.cls-23{fill:#a33021;}</style></defs><g id="Layer_2" data-name="Layer 2"><g id="OBJECTS"><path class="cls-1" d="M384.74,96.34c-6.64,3.23-11.67,9-16.53,14.5-2.68,3.07-6.48,6.45-10.29,5-2.37-.9-3.72-3.43-4.36-5.89s-.79-5-1.82-7.38c-3-6.79-12.71-8.45-19.17-4.8s-10.06,10.92-11.91,18.11-2.34,14.7-4.61,21.77c-.9,2.81-2.31,5.78-5,6.94-3.58,1.55-7.66-.79-10.36-3.6s-4.94-6.29-8.47-7.93c-4.66-2.18-10.47-.39-14.15,3.21S272.51,145,271.39,150c-4.33,19.45,8.64,47.4,22.62,61.58L405.49,98.05C400.11,93,391.38,93.12,384.74,96.34Z"/><path class="cls-2" d="M407.57,118.77c-3.11,6.69-8.73,11.83-14.2,16.79-3,2.73-6.33,6.59-4.82,10.37.94,2.36,3.5,3.66,6,4.25s5.07.71,7.42,1.69c6.84,2.87,8.67,12.56,5.14,19.09s-10.73,10.25-17.89,12.22-14.66,2.62-21.69,5c-2.78.95-5.73,2.41-6.84,5.14-1.48,3.6.92,7.64,3.78,10.29s6.38,4.82,8.09,8.32c2.26,4.63.58,10.47-3,14.21S361,231.86,356,233.07c-19.36,4.68-47.54-7.79-62-21.52L405.49,98.05C410.64,103.34,410.68,112.07,407.57,118.77Z"/><path class="cls-3" d="M294,211.55c.58.55,1.18,1.09,1.8,1.64l10.48-11.14L357.6,217.6l-48.9-18.11,34.57-36.72,42.1,5.76-39.65-8.36,28.57-30.36-29.83,29.12-9.08-39.49,6.52,42-36.09,35.22-19-48.56,16.47,51-10.94,10.68C292.9,210.4,293.46,211,294,211.55Z"/><path class="cls-4" d="M316.22,217.63c7.3-9,16.08-17,26.53-22,10-4.79,21.28-6.64,32.4-6.56,10.54.08,21.52,2.06,29.9,8.47s13.31,18.11,9.42,27.91c-2.69,6.77-9.09,11.59-16,13.82s-14.41,2.17-21.67,1.48-14.46-2-21.75-2.2c-25.18-.66-49.95,12.88-64.2,33.65C295.51,246.63,309.4,226.05,316.22,217.63Z"/><path class="cls-5" d="M415.72,216.28a19.87,19.87,0,0,1-1.25,9.17c-2.69,6.77-9.09,11.59-16,13.82s-14.41,2.17-21.67,1.48-14.46-2-21.75-2.2c-25.18-.66-49.95,12.88-64.2,33.65C325.14,180.1,415.72,216.28,415.72,216.28Z"/><path class="cls-6" d="M277.88,316.54l-8.32,18.22a3.19,3.19,0,1,0,5.8,2.65l8.32-18.22Z"/><path class="cls-7" d="M334.92,199.26l-15,3.15-31.47,69a224.24,224.24,0,0,0-17,55h0l4.47,2,4.46,2h0a224,224,0,0,0,30.46-48.87l31.47-68.94Z"/><polygon class="cls-8" points="319.94 202.41 313.93 215.57 336.34 225.8 342.35 212.65 338.97 206.56 326.75 200.98 319.94 202.41"/><path class="cls-7" d="M367.83,127.16a14.88,14.88,0,0,0-19.72,7.36l-32.23,70.62L343,217.49l32.23-70.61A14.88,14.88,0,0,0,367.83,127.16Z"/><rect class="cls-9" x="337.93" y="130.16" width="8.01" height="76.33" rx="3.43" transform="translate(100.77 -126.79) rotate(24.53)"/><path class="cls-9" d="M320,220a3.06,3.06,0,0,0-4.07,1.52l-28.3,62a3.07,3.07,0,0,0,5.59,2.55l28.3-62A3.08,3.08,0,0,0,320,220Z"/><path class="cls-6" d="M342.89,146H374a7.14,7.14,0,0,1,7.14,7.14v1.2a0,0,0,0,1,0,0H342.89a0,0,0,0,1,0,0V146A0,0,0,0,1,342.89,146Z" transform="translate(95.03 -136.77) rotate(24.54)"/><path class="cls-6" d="M373.08,159.76l-29.89,65.47a2.53,2.53,0,0,0,4.61,2.11l29.89-65.48Z"/><path class="cls-4" d="M109.65,230.36c-5.54-10.2-12.71-19.69-22.09-26.52-9-6.56-19.74-10.44-30.7-12.4-10.4-1.85-21.58-1.92-31,2.86s-16.43,15.4-14.4,25.76c1.41,7.16,6.83,13.08,13.25,16.55s13.8,4.78,21.07,5.42,14.61.68,21.82,1.83c24.92,4,46.83,21.83,57.05,44.89C124.73,262.71,114.83,239.9,109.65,230.36Z"/><path class="cls-5" d="M11.92,210.8a19.84,19.84,0,0,0-.45,9.26c1.41,7.16,6.83,13.08,13.25,16.55s13.8,4.78,21.07,5.42,14.61.68,21.82,1.83c24.92,4,46.83,21.83,57.05,44.89C107.74,191.77,11.92,210.8,11.92,210.8Z"/><path class="cls-8" d="M251.5,114.57c4.26-11.13,10.29-21.78,18.92-30,8.29-7.89,18.71-13.31,29.61-16.78,10.35-3.29,21.73-4.87,32-1.27S350.82,80,350.15,90.81c-.47,7.5-5.18,14.26-11.27,18.66s-13.41,6.73-20.73,8.37-14.8,2.67-22,4.81c-24.86,7.4-44.77,28.57-52.08,53.45C240.5,149.58,247.51,125,251.5,114.57Z"/><path class="cls-7" d="M348.45,81.44a20.52,20.52,0,0,1,1.7,9.37c-.47,7.5-5.18,14.26-11.27,18.66s-13.41,6.73-20.73,8.37-14.8,2.67-22,4.81c-24.86,7.4-44.77,28.57-52.08,53.45C248.22,75,348.44,81.44,348.45,81.44Z"/><path class="cls-8" d="M100.25,244.69c-11-5.1-22.84-8.59-34.91-8.49-11.59.1-23,3.51-33.36,8.66-9.84,4.9-19.23,11.77-24.15,21.61s-4.19,23,3.93,30.46c5.62,5.12,13.82,6.71,21.34,5.63s14.5-4.56,21-8.53,12.64-8.49,19.38-12c23.29-12.13,52.69-10.76,75.53,2.18C132.91,262.4,110.49,249.46,100.25,244.69Z"/><path class="cls-7" d="M6.4,288.91a20.73,20.73,0,0,0,5.36,8c5.62,5.12,13.82,6.71,21.34,5.63s14.5-4.56,21-8.53,12.64-8.49,19.38-12c23.29-12.13,52.69-10.76,75.53,2.18C74.74,213.6,6.4,288.91,6.4,288.91Z"/><path class="cls-8" d="M103.28,125.58c-4.22-8.91-7.14-18.6-7.13-28.47,0-9.46,2.72-18.79,6.87-27.3C107,61.74,112.53,54,120.53,50s18.81-3.56,24.9,3c4.22,4.56,5.57,11.25,4.73,17.4s-3.64,11.87-6.84,17.18-6.86,10.38-9.69,15.91c-9.77,19.09-8.49,43.1,2.22,61.69C117.94,152.16,107.24,133.92,103.28,125.58Z"/><path class="cls-7" d="M138.85,48.65A16.94,16.94,0,0,1,145.43,53c4.22,4.56,5.57,11.25,4.73,17.4s-3.64,11.87-6.84,17.18-6.86,10.38-9.69,15.91c-9.77,19.09-8.49,43.1,2.22,61.69C77.74,104.92,138.85,48.65,138.85,48.65Z"/><path class="cls-8" d="M311.49,247.22c9.85-4.43,20.52-7.41,31.32-7.17,10.36.22,20.5,3.4,29.72,8.14,8.74,4.49,17.05,10.75,21.33,19.6S397.33,288.46,390,295c-5.08,4.51-12.43,5.84-19.15,4.78s-12.9-4.25-18.65-7.88-11.2-7.74-17.18-11c-20.68-11.12-47-10.25-67.56,1.05C282.08,262.66,302.28,251.36,311.49,247.22Z"/><path class="cls-7" d="M394.87,287.88A18.46,18.46,0,0,1,390,295c-5.08,4.51-12.43,5.84-19.15,4.78s-12.9-4.25-18.65-7.88-11.2-7.74-17.18-11c-20.68-11.12-47-10.25-67.56,1.05C334.67,219.73,394.87,287.87,394.87,287.88Z"/><path class="cls-5" d="M138.25,68.76c-.17,6,2.06,11.77,4.24,17.36,1.2,3.08,2.21,7.08-.26,9.29-1.54,1.37-3.87,1.39-5.87.92s-4-1.32-6-1.45c-6-.4-10.86,6-10.66,12s4.08,11.34,8.57,15.38,9.71,7.21,13.95,11.5c1.69,1.7,3.3,3.83,3.12,6.21-.24,3.16-3.45,5.22-6.49,6.11s-6.38,1.2-8.89,3.12c-3.32,2.54-4.21,7.4-3,11.4s4.16,7.26,7.36,10c12.38,10.42,37.38,11.57,52.85,6.83L147.27,54.46C141.61,56.44,138.42,62.77,138.25,68.76Z"/><path class="cls-4" d="M163,60.74c3.66,4.75,5.25,10.73,6.77,16.53.83,3.2,2.37,7,5.66,7.37,2,.21,3.95-1.15,5.3-2.7s2.41-3.39,4-4.7c4.64-3.86,12.3-1.54,15.68,3.46s3.35,11.57,2.09,17.47-3.62,11.54-4.54,17.5c-.36,2.37-.41,5,1.13,6.87,2,2.41,5.86,2.2,8.84,1.13s5.86-2.78,9-2.7c4.18.11,7.75,3.52,9.12,7.47s.9,8.31-.11,12.37c-3.9,15.7-23.46,31.32-38.77,36.57L147.27,54.46C153,52.73,159.32,56,163,60.74Z"/><path class="cls-10" d="M187.17,177.38c.61-.21,1.23-.44,1.85-.69L184.93,165l30.47-31.12L184,162.27l-13.46-38.69,19.95-28.16-20.91,25.42-11.13-32,9.77,32.42L136.35,113l32.7,11.07,11.82,39.22-42.11-4.56,42.93,7.3,3.58,11.89C185.92,177.74,186.55,177.56,187.17,177.38Z"/><path class="cls-7" d="M5.63,105.13c1.65,5.36,5.36,9.79,9,14.07,2,2.37,4.09,5.61,2.57,8.3-.94,1.68-3,2.39-4.91,2.59s-3.89,0-5.75.52c-5.44,1.46-7.8,8.56-5.81,13.83s7,8.8,12.21,11,10.77,3.45,15.81,6c2,1,4.07,2.4,4.63,4.57.75,2.86-1.47,5.65-3.89,7.35s-5.29,3-6.93,5.44c-2.17,3.25-1.5,7.82.79,11s5.85,5.16,9.5,6.58c14.09,5.49,36.55-1,48.8-9.89L9.3,89.76C4.88,93.22,4,99.78,5.63,105.13Z"/><path class="cls-8" d="M25.08,90.58c4.66,3.11,7.87,7.92,11,12.59,1.7,2.58,4.22,5.51,7.23,4.81,1.88-.44,3.15-2.2,3.88-4s1.11-3.73,2.11-5.37c3-4.81,10.42-5.07,14.92-1.67s6.45,9.24,7.11,14.83.28,11.3,1.26,16.85c.39,2.2,1.15,4.58,3.07,5.73,2.53,1.52,5.84.19,8.16-1.65s4.35-4.23,7.17-5.12c3.73-1.16,7.92.78,10.32,3.86s3.3,7.08,3.63,11c1.28,15.06-11.31,34.77-23.28,44L9.3,89.76C13.85,86.5,20.41,87.48,25.08,90.58Z"/><path class="cls-11" d="M81.62,186.46c.48-.36,1-.75,1.43-1.16l-7.14-9.14,17.57-36.71L74.26,174.06,50.69,143.9,59.86,113,49,141.75,29.54,116.82,48,142.56l-30.68,2.26,32.26,0L71.8,175.9l-38.62,8.65,40.18-6.48,6.75,9.44C80.63,187.16,81.14,186.82,81.62,186.46Z"/><path class="cls-1" d="M103.27,122.13,89.21,50.93l-16,3.15-16,3.15,14.06,71.2L40.84,191a15.85,15.85,0,0,0,17.32,22.49L103,204.67l44.82-8.85a15.85,15.85,0,0,0,7.47-27.38Z"/><path class="cls-1" d="M88.52,47.43,56.59,53.74a3.56,3.56,0,0,0,1.38,7L89.9,54.42a3.56,3.56,0,1,0-1.38-7Z"/><path class="cls-8" d="M151.76,182.2a7.08,7.08,0,0,0-2.18-7.37L131.92,159.1a70.38,70.38,0,0,1-37,9.65c-8.87-.23-17.68-2.15-26.55-1.7a56.47,56.47,0,0,0-6.75.78L48.53,194.78a7.3,7.3,0,0,0,8,10.35l89.64-17.7A7,7,0,0,0,151.76,182.2Z"/><path class="cls-12" d="M69.74,63a5.17,5.17,0,0,0-4.07,6.07L76.28,122.8a5.17,5.17,0,0,0,10.14-2L75.81,67.07A5.15,5.15,0,0,0,69.74,63Z"/><circle class="cls-1" cx="52.49" cy="33.02" r="9.24" transform="translate(8.3 76.52) rotate(-76.72)"/><path class="cls-1" d="M76.46,41a3.86,3.86,0,1,1-3.85-3.86A3.85,3.85,0,0,1,76.46,41Z"/><rect class="cls-4" x="327.32" y="219.26" width="30.08" height="117.43" transform="translate(446.97 706.37) rotate(-142.8)"/><path class="cls-13" d="M389.83,240.3,401.46,225a6.39,6.39,0,0,0-1.23-8.95l-13.77-10.46a6.4,6.4,0,0,0-9,1.23l-11.62,15.31Z"/><rect class="cls-14" x="364.52" y="226.16" width="30.08" height="5.61" transform="translate(543.43 640.83) rotate(-142.8)"/><rect class="cls-8" x="335.35" y="219.26" width="14.01" height="117.43" transform="translate(446.98 706.37) rotate(-142.8)"/><polygon class="cls-13" points="281.06 358.72 318.83 333.83 306.86 324.74 294.88 315.64 281.06 358.72"/><polygon class="cls-6" points="281.06 358.72 290.99 352.17 284.69 347.39 281.06 358.72"/><path class="cls-6" d="M198,84.79l-11,58.3h0c-1.62,10.34,19.68,23,47.84,28.26s52.59,1.3,54.84-8.93h0l11-58.3Z"/><path class="cls-15" d="M240.4,142.18c4.57.86,9,1.47,13.33,1.86a8.51,8.51,0,0,1,7.59,10.06l-3.69,19.59c17.55.18,30.5-3.94,32.11-11.26h0l6.41-34,4.57-24.26L198,84.79l-5.49,29.12h0C190.94,124.26,212.23,136.87,240.4,142.18Z"/><path class="cls-6" d="M249.71,64.3,153,71.48a6.17,6.17,0,0,0-2.21,11.72l87.45,41.85a20.49,20.49,0,0,0,10.34,2l96.68-7.18a6.17,6.17,0,0,0,2.21-11.72L260.05,66.25A20.49,20.49,0,0,0,249.71,64.3Z"/><path class="cls-7" d="M295.08,188.26c-4.66-.88-9.92,6.23-11.73,15.88-.31,1.62,3.23,3.64,7.89,4.52s8.69.28,9-1.34C302.05,197.67,299.74,189.14,295.08,188.26Z"/><path class="cls-6" d="M300,189.66a5.06,5.06,0,1,0-5.91,4A5.07,5.07,0,0,0,300,189.66Z"/><path class="cls-7" d="M295,188.72a2.78,2.78,0,0,1-2.21-3.24l11.55-61.33L248.41,95.36A2.77,2.77,0,1,1,251,90.43l57.76,29.73a2.79,2.79,0,0,1,1.46,3l-11.94,63.37A2.77,2.77,0,0,1,295,188.72Z"/><path class="cls-6" d="M299.78,176l-98,4.35h-.75l-98-4.35h-1a8.4,8.4,0,0,0-8.39,8.4V285.84a8.39,8.39,0,0,0,7.77,8.37c20.24,1.5,74.76,5.52,99.93,7.16,25.16-1.64,79.68-5.66,99.92-7.16a8.39,8.39,0,0,0,7.77-8.37V184.35a8.39,8.39,0,0,0-8.39-8.4Z"/><path class="cls-16" d="M106.23,164.07l-6.79,18.59-.83,101.77,7.62-10.37S127.27,170.78,106.23,164.07Z"/><path class="cls-16" d="M106.23,274.06l-7.62,10.37L201.44,295V285.5S145.84,252.05,106.23,274.06Z"/><path class="cls-16" d="M296.64,274.06l7.62,10.37L201.44,295V285.5S257,252.05,296.64,274.06Z"/><path class="cls-17" d="M201.44,285.5V174.29s-51-34.76-95.21-10.22v110S141.27,258.93,201.44,285.5Z"/><path class="cls-16" d="M296.64,164.07l6.8,18.59.82,101.77-7.62-10.37S275.6,170.78,296.64,164.07Z"/><path class="cls-17" d="M201.44,285.5V174.29s51-34.76,95.2-10.22v110S261.61,258.93,201.44,285.5Z"/><polygon class="cls-16" points="201.44 187 205.48 285.5 201.44 286.39 201.44 187"/><path class="cls-14" d="M191.32,182.66a.84.84,0,0,1-.42-.12,94.32,94.32,0,0,0-73.14-10.64.85.85,0,0,1-1-.69.94.94,0,0,1,.63-1.13,95.92,95.92,0,0,1,74.38,10.83,1,1,0,0,1,.33,1.27A.85.85,0,0,1,191.32,182.66Z"/><path class="cls-14" d="M191.32,193.54a.84.84,0,0,1-.42-.12,94.28,94.28,0,0,0-73.14-10.65.84.84,0,0,1-1-.68,1,1,0,0,1,.63-1.14,95.92,95.92,0,0,1,74.38,10.83,1,1,0,0,1,.33,1.28A.87.87,0,0,1,191.32,193.54Z"/><path class="cls-14" d="M191.32,204.41a.83.83,0,0,1-.42-.11,94.28,94.28,0,0,0-73.14-10.65.85.85,0,0,1-1-.69.94.94,0,0,1,.63-1.13,95.92,95.92,0,0,1,74.38,10.83,1,1,0,0,1,.33,1.27A.85.85,0,0,1,191.32,204.41Z"/><path class="cls-14" d="M191.32,215.29a.84.84,0,0,1-.42-.12,94.32,94.32,0,0,0-73.14-10.64.85.85,0,0,1-1-.69.94.94,0,0,1,.63-1.13,95.92,95.92,0,0,1,74.38,10.83,1,1,0,0,1,.33,1.27A.85.85,0,0,1,191.32,215.29Z"/><path class="cls-14" d="M191.32,226.17a.84.84,0,0,1-.42-.12,94.28,94.28,0,0,0-73.14-10.65.85.85,0,0,1-1-.68.94.94,0,0,1,.63-1.13,95.84,95.84,0,0,1,74.38,10.83,1,1,0,0,1,.33,1.27A.87.87,0,0,1,191.32,226.17Z"/><path class="cls-14" d="M191.32,237a.83.83,0,0,1-.42-.11,95.1,95.1,0,0,0-35.66-12.77.93.93,0,0,1-.74-1,.87.87,0,0,1,1-.81,97,97,0,0,1,36.28,13,1,1,0,0,1,.33,1.28A.86.86,0,0,1,191.32,237Z"/><path class="cls-14" d="M191.32,247.92a.84.84,0,0,1-.42-.12,95.08,95.08,0,0,0-36.56-12.89.93.93,0,0,1-.75-1,.88.88,0,0,1,1-.81,96.73,96.73,0,0,1,37.19,13.12,1,1,0,0,1,.33,1.27A.85.85,0,0,1,191.32,247.92Z"/><path class="cls-14" d="M191.32,258.8a.84.84,0,0,1-.42-.12,95.12,95.12,0,0,0-37.17-13,.92.92,0,0,1-.75-1,.87.87,0,0,1,1-.81,96.65,96.65,0,0,1,37.81,13.2,1,1,0,0,1,.33,1.27A.85.85,0,0,1,191.32,258.8Z"/><path class="cls-14" d="M191.32,269.67a.83.83,0,0,1-.42-.11,95.12,95.12,0,0,0-37.17-13,.92.92,0,0,1-.75-1,.87.87,0,0,1,1-.82,97,97,0,0,1,37.81,13.2,1,1,0,0,1,.33,1.28A.86.86,0,0,1,191.32,269.67Z"/><path class="cls-14" d="M285.31,171.92l-.2,0a94.09,94.09,0,0,0-41.33-1.49.86.86,0,0,1-1-.76.92.92,0,0,1,.7-1.08,95.55,95.55,0,0,1,42,1.51.94.94,0,0,1,.63,1.13A.86.86,0,0,1,285.31,171.92Z"/><path class="cls-14" d="M285.31,182.8a.69.69,0,0,1-.2,0,94.13,94.13,0,0,0-41.44-1.46.86.86,0,0,1-1-.77.93.93,0,0,1,.69-1.08A95.73,95.73,0,0,1,285.51,181a1,1,0,0,1,.63,1.14A.87.87,0,0,1,285.31,182.8Z"/><path class="cls-14" d="M285.31,193.68a.69.69,0,0,1-.2,0,94.17,94.17,0,0,0-41.58-1.44.87.87,0,0,1-1-.76.93.93,0,0,1,.7-1.08,95.62,95.62,0,0,1,42.27,1.46.94.94,0,0,1,.63,1.13A.87.87,0,0,1,285.31,193.68Z"/><path class="cls-14" d="M285.31,204.55l-.2,0a93.93,93.93,0,0,0-41.56-1.44.87.87,0,0,1-1-.77.93.93,0,0,1,.7-1.08,95.68,95.68,0,0,1,42.25,1.47.94.94,0,0,1,.63,1.13A.86.86,0,0,1,285.31,204.55Z"/><path class="cls-14" d="M211.55,226.17a.85.85,0,0,1-.75-.48,1,1,0,0,1,.33-1.27,95.88,95.88,0,0,1,74.38-10.83.93.93,0,0,1,.63,1.13.85.85,0,0,1-1,.68A94.28,94.28,0,0,0,212,226.05.81.81,0,0,1,211.55,226.17Z"/><path class="cls-14" d="M211.55,237.44a.85.85,0,0,1-.75-.48,1,1,0,0,1,.33-1.27,95.88,95.88,0,0,1,74.38-10.83.94.94,0,0,1,.63,1.13.84.84,0,0,1-1,.68A94.28,94.28,0,0,0,212,237.32.81.81,0,0,1,211.55,237.44Z"/><path class="cls-14" d="M211.55,248.32a.87.87,0,0,1-.75-.48,1,1,0,0,1,.33-1.28,95.92,95.92,0,0,1,74.38-10.83.94.94,0,0,1,.63,1.13.85.85,0,0,1-1,.69A94.28,94.28,0,0,0,212,248.2.81.81,0,0,1,211.55,248.32Z"/><path class="cls-14" d="M211.55,259.19a.85.85,0,0,1-.75-.48,1,1,0,0,1,.33-1.27,95.92,95.92,0,0,1,74.38-10.83.94.94,0,0,1,.63,1.13.85.85,0,0,1-1,.69A94.32,94.32,0,0,0,212,259.07.81.81,0,0,1,211.55,259.19Z"/><path class="cls-14" d="M211.55,270.07a.85.85,0,0,1-.75-.48,1,1,0,0,1,.33-1.27,95.88,95.88,0,0,1,74.38-10.83.94.94,0,0,1,.63,1.13.84.84,0,0,1-1,.68A94.28,94.28,0,0,0,212,270,.81.81,0,0,1,211.55,270.07Z"/><path class="cls-14" d="M117.56,222.09v35.77a144.53,144.53,0,0,1,31.18-2.21V219.28S136.51,218,117.56,222.09Z"/><path class="cls-14" d="M211.55,180.3v35.18a68.26,68.26,0,0,1,22.92-10.6V171A64.2,64.2,0,0,0,211.55,180.3Z"/><rect class="cls-14" x="101.86" y="300.98" width="8.18" height="17.09" transform="translate(-147.38 102.5) rotate(-31.85)"/><circle class="cls-6" cx="81.33" cy="269.91" r="42.28" transform="translate(-189.2 349.12) rotate(-89.55)"/><circle class="cls-1" cx="81.33" cy="269.91" r="35.02" transform="translate(-167.03 136.56) rotate(-45)"/><path class="cls-18" d="M111.08,251.43a35,35,0,0,0-48.23-11.27l37,59.49A35,35,0,0,0,111.08,251.43Z"/><path class="cls-14" d="M66,245.26a35,35,0,0,1,46.53,8.79c-.45-.89-.94-1.76-1.47-2.62a35,35,0,0,0-59.5,36.95c.54.87,1.11,1.69,1.7,2.48A35,35,0,0,1,66,245.26Z"/><path class="cls-19" d="M112.55,254.05c-.22-.43-.45-.87-.69-1.29s-.51-.89-.78-1.33a35,35,0,0,0-48.23-11.27l3.17,5.1A35,35,0,0,1,112.55,254.05Z"/><path class="cls-6" d="M111.6,311.26l-6.61,4.1a4,4,0,0,0-1.28,5.49l28.4,45.73a7.88,7.88,0,0,0,13.38-8.31l-28.41-45.73A4,4,0,0,0,111.6,311.26Z"/><path class="cls-19" d="M107.06,317.69a2,2,0,0,0-.63,2.67l27.69,44.57a1.94,1.94,0,0,0,3.29-2l-27.69-44.57A1.93,1.93,0,0,0,107.06,317.69Z"/><path class="cls-1" d="M329.08,31a27.63,27.63,0,0,0-19.56,8.08,21.82,21.82,0,0,0-26.65,6.07,14.85,14.85,0,0,0-6.38-1.44,15,15,0,0,0-15,15H356.8A27.72,27.72,0,0,0,329.08,31Z"/><path class="cls-1" d="M139.93,23.76a11.78,11.78,0,0,0-6.7,2.09A20.45,20.45,0,0,0,94.8,35.57h57A11.82,11.82,0,0,0,139.93,23.76Z"/><path class="cls-6" d="M66.09,159.92H87.74l7.29,67H88.45L78.7,172.33a2.09,2.09,0,0,0-2-1.61h0a2.08,2.08,0,0,0-2.08,2l-1.91,54.19H66.09Z"/><path class="cls-4" d="M89.07,120.29H72.8a4,4,0,0,0-4,3.66l-2.76,36H87.74L93,124.83A4,4,0,0,0,89.07,120.29Z"/><path class="cls-20" d="M77.15,114l-.33,7a3.25,3.25,0,0,0,6.5.32l.34-7Z"/><path class="cls-21" d="M76.89,119.53a11.48,11.48,0,0,0,3.34-.94,11.75,11.75,0,0,0,3.33-2.29l.1-2L77.15,114Z"/><path class="cls-20" d="M71.14,98.6c1.68-2.23,5.3-3.14,8.33-2.51,2.57.54,5.68,2.35,6.73,4.44.86,1.7.67,4.14.31,6.24a2.51,2.51,0,0,1,.55-.06,1.73,1.73,0,0,1,1.79,1.18c.35,1.85-1.43,3.22-2.85,3.31a2.41,2.41,0,0,1-.6,0,9.79,9.79,0,0,1-5.61,5.88,6.49,6.49,0,0,1-5.41-.22,5.19,5.19,0,0,1-2.13-3.09,10.16,10.16,0,0,1-.43-3.09,14.33,14.33,0,0,0,0-2.27,11.58,11.58,0,0,0-.88-2.56C70,103.49,69.54,100.74,71.14,98.6Z"/><path class="cls-6" d="M77.58,103.74a2.18,2.18,0,0,1,1.63,1,.28.28,0,0,1-.49.25,1.84,1.84,0,0,0-1.3-.69,4.15,4.15,0,0,0-.78-.09c-.22,0-.41.09-.63.08a.12.12,0,0,1-.11-.18C76.12,103.63,77.15,103.67,77.58,103.74Z"/><path class="cls-6" d="M70.7,104.16c.39-.49,1.58-.69,2-.13.12.17-.12.38-.3.28a1.38,1.38,0,0,0-1.4.11C70.82,104.51,70.57,104.32,70.7,104.16Z"/><path class="cls-22" d="M78.12,109.15a1.54,1.54,0,0,1,.46-.19.39.39,0,1,1,.23.74.7.7,0,0,1-.79-.21C77.92,109.37,78,109.22,78.12,109.15Z"/><path class="cls-22" d="M72.22,108.93a.4.4,0,0,1,.33.14c.25.22-.14.56-.38.34a.31.31,0,0,1-.15-.3A.21.21,0,0,1,72.22,108.93Z"/><path class="cls-6" d="M78.26,107.74a.49.49,0,1,1,0,1A.49.49,0,1,1,78.26,107.74Z"/><path class="cls-6" d="M72.85,107.52a.46.46,0,1,1,0,.92A.46.46,0,1,1,72.85,107.52Z"/><path class="cls-22" d="M73.48,110.34c.72.09,1-1.16,1-1.61a.34.34,0,0,1,.65-.08c.39,1-.19,2.85-1.66,2.76C72.71,111.36,72.74,110.26,73.48,110.34Z"/><path class="cls-12" d="M78.14,110.89c.07-.08.19-.18.28-.12a.18.18,0,0,1,.08.09,2,2,0,0,1-.61,2.33,2.55,2.55,0,0,1-2.66.24c-.59-.3-.6-.9.09-1a4.62,4.62,0,0,0,2-.73A3.87,3.87,0,0,0,78.14,110.89Z"/><path class="cls-6" d="M86.92,94.77c-8.94-7.44-13.45,5.5-15.4,6.63l-.33.18a14.63,14.63,0,0,0,2.47.22,36,36,0,0,0,7.84-1.15,12.56,12.56,0,0,0,3.28,9.45c.56-2.23,1-2.66,1.58-3a1.59,1.59,0,0,1,2.11.28C90.32,104.57,93,94,86.92,94.77Z"/><path class="cls-6" d="M80.55,90.44a10.72,10.72,0,0,0-7.89,1.39C69.22,94,67.3,98,64.05,100.42l3.18-.55L64,101.48a49.94,49.94,0,0,0,10.15.59,21,21,0,0,0,7.32-1.4,10.05,10.05,0,0,0,4.89-4.16c1.1-2-.72-3.57-2.33-4.61A10.53,10.53,0,0,0,80.55,90.44Z"/><path class="cls-4" d="M61.54,144.18c-2.23-.15-3.37-3.1-3.59-4.73l-2.22-16.78,4.35-.59,3,13,6.32-12.59,5.41,6.85S67.14,144.55,61.54,144.18Z"/><path class="cls-20" d="M60.08,122.08,59,117.23a1.91,1.91,0,0,0-1.87-1.5H52.47A1.26,1.26,0,0,0,51.21,117v3.47a1.27,1.27,0,0,0,.92,1.22l3.6,1Z"/><polygon class="cls-23" points="57.65 113.71 54.73 124.96 51.65 123.88 54.65 113.5 57.65 113.71"/><path class="cls-4" d="M34.56,100V123.6l23.76-9.68a2.3,2.3,0,0,0,1.43-2.12h0a2.3,2.3,0,0,0-1.43-2.12Z"/><ellipse class="cls-23" cx="34.56" cy="111.8" rx="3.53" ry="11.8"/><polygon class="cls-20" points="57.42 116.52 53.31 116.52 52.19 121.15 54.06 121.15 54.92 118.31 56.73 119.55 57.42 116.52"/><path class="cls-4" d="M84.08,121.15l20.13-3.48L113,96.92l4.25,1.14-6.37,22a5.31,5.31,0,0,1-3.29,3.52l-20.72,7.57Z"/><path class="cls-20" d="M120.19,88.75c-1.26-1.67-4,2.38-5.71,5.36-2.36-7.18-1.52,2.81-1.52,2.81l4.25,1.14S122.1,91.29,120.19,88.75Z"/><path class="cls-4" d="M72.68,226.89v5.72s-33.28,14.92-6.59-5.72Z"/><path class="cls-4" d="M88.45,226.89l.8,5s28.26,13.42,5.78-5Z"/><rect class="cls-8" x="194.84" y="67.73" width="31.76" height="9.32"/><path class="cls-4" d="M238.86,46.42l-.76-1.64a16.51,16.51,0,0,0-.81-1.57c-.29-.5-.56-1-.87-1.49l-.91-1.42-1-1.32c-.32-.45-.66-.87-1-1.27s-.67-.84-1-1.22l-1-1.15c-.71-.74-1.42-1.48-2.16-2.16-.36-.35-.73-.69-1.1-1s-.74-.66-1.12-1c-.76-.64-1.52-1.25-2.31-1.84-.39-.3-.79-.58-1.19-.87l-.61-.42-.66-.43c-2-1.3-4.43-.38-5.48,2.06a5.64,5.64,0,0,0,1.67,6.78l.11.08.47.3.48.34q.5.35,1,.72c.66.49,1.31,1,1.95,1.55.32.26.63.55.94.82s.62.56.93.85c.61.57,1.19,1.18,1.77,1.78l.84.93c.28.3.53.64.8,1s.53.64.76,1,.49.67.73,1l.66,1a6.34,6.34,0,0,1,.39.66c-.16.26-.34.51-.53.76s-.53.78-.84,1.15l-.9,1.13-1,1.1c-.31.38-.64.73-1,1.09s-.65.72-1,1.07c-.68.71-1.38,1.4-2.08,2.08-.35.34-.72.67-1.08,1l-1.09,1q-1.09,1-2.22,1.92l-1.13.93-1.11.88-.1.08a3.51,3.51,0,0,0-.92,3.87c.58,1.55,2.06,2.23,3.31,1.52l1.34-.76,1.3-.77c.86-.53,1.72-1.06,2.57-1.62l1.27-.85c.42-.29.85-.57,1.27-.88.84-.59,1.68-1.21,2.51-1.85.41-.31.82-.65,1.23-1s.83-.66,1.24-1l1.22-1.07,1.2-1.14c.41-.37.8-.8,1.19-1.21s.79-.83,1.18-1.3.77-.89,1.15-1.4l1.11-1.55h0l0,0A5.61,5.61,0,0,0,238.86,46.42Z"/><path class="cls-23" d="M219.12,36.85l.48.34q.5.35,1,.72c.66.49,1.31,1,1.95,1.55.32.26.63.55.94.82s.62.56.93.85c.61.57,1.19,1.18,1.77,1.78l.84.93c.23.25.44.52.66.79-1.06-6-5.34-13.5-5.34-13.5-2-.19-2.93,2.79-3.42,5.59Z"/><path class="cls-4" d="M182.53,46.42l.75-1.64c.25-.57.54-1.06.82-1.57s.55-1,.86-1.49l.92-1.42c.31-.45.64-.88,1-1.32s.65-.87,1-1.27.66-.84,1-1.22l1-1.15c.71-.74,1.42-1.48,2.15-2.16q.54-.52,1.11-1c.37-.33.74-.66,1.12-1,.75-.64,1.52-1.25,2.3-1.84.39-.3.79-.58,1.19-.87l.62-.42.65-.43c2-1.3,4.43-.38,5.49,2.06s.31,5.48-1.67,6.78l-.12.08-.46.3-.49.34q-.5.35-1,.72c-.66.49-1.31,1-1.94,1.55-.33.26-.63.55-.95.82s-.62.56-.92.85c-.62.57-1.19,1.18-1.78,1.78l-.83.93c-.29.3-.53.64-.8,1s-.53.64-.77,1-.49.67-.72,1l-.67,1a6.34,6.34,0,0,0-.39.66c.17.26.35.51.53.76s.54.78.85,1.15l.89,1.13,1,1.1c.31.38.65.73,1,1.09s.66.72,1,1.07c.68.71,1.38,1.4,2.09,2.08l1.07,1,1.09,1q1.09,1,2.22,1.92l1.13.93,1.11.88.1.08a3.49,3.49,0,0,1,.92,3.87,2.32,2.32,0,0,1-3.3,1.52l-1.34-.76L200,66.51c-.86-.53-1.72-1.06-2.57-1.62L196.16,64c-.42-.29-.85-.57-1.26-.88-.85-.59-1.68-1.21-2.51-1.85-.42-.31-.83-.65-1.24-1s-.83-.66-1.23-1l-1.22-1.07-1.21-1.14c-.4-.37-.79-.8-1.19-1.21s-.79-.83-1.17-1.3-.78-.89-1.15-1.4l-1.12-1.55h0l0,0A5.58,5.58,0,0,1,182.53,46.42Z"/><path class="cls-23" d="M202.27,36.85l-.49.34q-.5.35-1,.72c-.66.49-1.31,1-1.94,1.55-.33.26-.63.55-.95.82s-.62.56-.92.85c-.62.57-1.19,1.18-1.78,1.78l-.83.93c-.24.25-.45.52-.67.79,1.06-6,5.35-13.5,5.35-13.5,1.94-.19,2.92,2.79,3.42,5.59Z"/><path class="cls-4" d="M220,27H201.06a2.67,2.67,0,0,0-2.67,2.67V62.79h24.29V29.67A2.67,2.67,0,0,0,220,27Z"/><path class="cls-20" d="M207.25,21.85v5.88a3.4,3.4,0,0,0,6.8,0V21.85Z"/><path class="cls-21" d="M207.25,24.1a12.48,12.48,0,0,0,1.62,1.19,12.12,12.12,0,0,0,3.22,1.39,5.92,5.92,0,0,0,2,.23V21.85h-6.8Z"/><path class="cls-15" d="M229,43.21a4.51,4.51,0,0,0-4.51-4.51H197.56A4.51,4.51,0,0,0,193,43.21l.2,22.23h35.93Z"/><circle class="cls-12" cx="211.01" cy="51.48" r="3.49"/><rect class="cls-15" x="192.23" y="65.44" width="38.13" height="4.49"/><path class="cls-7" d="M233.15,70.28a4.94,4.94,0,0,1-1.6,6.44,4.58,4.58,0,0,1-1.19.54l-27.78,9.11-2.72-6,26.75-12.2A5,5,0,0,1,233.15,70.28Z"/><polygon class="cls-8" points="214.45 73.75 199.86 80.41 202.58 86.37 226.6 78.5 214.45 73.75"/><path class="cls-7" d="M187.69,70.28a4.94,4.94,0,0,0,1.6,6.44,4.58,4.58,0,0,0,1.19.54l27.78,9.11,2.72-6L194.23,68.2A5,5,0,0,0,187.69,70.28Z"/><path class="cls-4" d="M221,80.4h12.76s.17,6-6.46,6h-9Z"/><path class="cls-4" d="M199.86,80.4H187.1s-.17,6,6.46,6h9Z"/><path class="cls-6" d="M219.77,11.44c2.43.27,4.69-2.27,4.39-4.91a6.09,6.09,0,0,0-2.28-3.91,10.89,10.89,0,0,0-4-1.87,21.58,21.58,0,0,0-17.5,2.8c0,3.24-.21,6.75.63,9.89s2.72,6.15,5.48,7.45a8.18,8.18,0,0,0,8.27-1.07C217.16,18.07,218.89,14.44,219.77,11.44Z"/><path class="cls-20" d="M201.91,9.49c1.76,3.11.52,7.13,1.75,10.48a7.43,7.43,0,0,0,13.72.56c.92-2,.91-4.29,1-6.49s.18-4.52,1.34-6.4c.38-.6-.37-1.49-.9-2a5.36,5.36,0,0,0-1.88-1,16.64,16.64,0,0,0-11.79.46,7.28,7.28,0,0,0-2.38,1.5C202.05,7.33,201.45,8.67,201.91,9.49Z"/><path class="cls-6" d="M207.25,14.29a.49.49,0,1,0,0,1A.49.49,0,1,0,207.25,14.29Z"/><path class="cls-6" d="M214.05,14.29a.49.49,0,1,0,0,1A.49.49,0,1,0,214.05,14.29Z"/><ellipse class="cls-22" cx="206.06" cy="16.69" rx="1" ry="0.61"/><ellipse class="cls-22" cx="215.22" cy="16.69" rx="1" ry="0.61"/><path class="cls-22" d="M211.71,18.17c-.71.08-.94-1.16-1-1.61a.34.34,0,0,0-.65-.08c-.4,1,.19,2.85,1.65,2.75C212.48,19.18,212.45,18.08,211.71,18.17Z"/><path class="cls-22" d="M209.65,21.39a2.51,2.51,0,0,1-1.36-.4,2.48,2.48,0,0,1-1-1.44.25.25,0,1,1,.48-.12,2,2,0,0,0,.82,1.14,2,2,0,0,0,1.38.3.26.26,0,0,1,.29.2.25.25,0,0,1-.21.29A2.31,2.31,0,0,1,209.65,21.39Z"/><path class="cls-6" d="M205.22,12.4a.33.33,0,0,1-.14,0A.26.26,0,0,1,205,12a3.25,3.25,0,0,1,3.36-1.36.25.25,0,0,1,.18.31.25.25,0,0,1-.3.18,2.71,2.71,0,0,0-2.82,1.14A.27.27,0,0,1,205.22,12.4Z"/><path class="cls-6" d="M216.13,12.39a.26.26,0,0,1-.21-.11,2.69,2.69,0,0,0-2.82-1.14.25.25,0,1,1-.12-.49A3.25,3.25,0,0,1,216.34,12a.26.26,0,0,1-.07.35A.35.35,0,0,1,216.13,12.39Z"/><path class="cls-20" d="M218.39,13.32a1,1,0,0,1,1.2-.29,1.28,1.28,0,0,1,.46,1.15,4.37,4.37,0,0,1-1.23,2.92.82.82,0,0,1-.66.31c-.34-.05-.49-.44-.54-.77A4.54,4.54,0,0,1,218.39,13.32Z"/><path class="cls-20" d="M202.9,13.32a1,1,0,0,0-1.21-.29,1.27,1.27,0,0,0-.45,1.15,4.32,4.32,0,0,0,1.23,2.92.82.82,0,0,0,.66.31c.33-.05.49-.44.54-.77A4.63,4.63,0,0,0,202.9,13.32Z"/><path class="cls-6" d="M202.62,14.88a17.88,17.88,0,0,0,2.66-7.51,24,24,0,0,0,13.28,3.3c.67,0,2.78-4.29,2-5-2.25-2.1-5.44-2.8-8.5-3.05a15.77,15.77,0,0,0-6.56.55,7.33,7.33,0,0,0-4.66,4.38,9.18,9.18,0,0,0,.28,5.43C201.35,13.76,201.81,14.68,202.62,14.88Z"/><path class="cls-6" d="M217,9.88a9.36,9.36,0,0,0,1,4.59,8.42,8.42,0,0,0,1.88-3.55,2,2,0,0,0,0-1.33A1.31,1.31,0,0,0,218.55,9,2.78,2.78,0,0,0,217,9.88Z"/><path class="cls-6" d="M197,293.09l16.69,71.54-4,1.21-23.24-55.79S187.49,288.46,197,293.09Z"/><polygon class="cls-15" points="189.65 317.88 196.56 334.46 193.75 298.48 189.65 317.88"/><path class="cls-6" d="M183.19,293s-5.37,5.58-4.3,23,4.86,51.57,4.86,51.57h5.42L194,294.23S185.22,289.45,183.19,293Z"/><path class="cls-4" d="M195.39,266.82c3.51,8.55,1.47,17.35,1.58,26.27-5.67,1.46-8.2,1.59-13.78,0a44.61,44.61,0,0,0-2.31-16.85A22.26,22.26,0,0,1,195.39,266.82Z"/><path class="cls-20" d="M195.23,274.43a30.35,30.35,0,0,0,9.28,5.14c6.21-2.32,15-8.78,15.68-11.39a2.75,2.75,0,0,0-.13-2.23c-.65-1-2.56-1.58-4.07-1.18s-2.4,1.7-1.88,2.76c.34.71,1.27,1.59.73,2.23-2,2.35-7.53,3.53-10.31,5.44-3-1.39-3.52-2.13-5.79-4.08a1.22,1.22,0,0,0-1.64-.25A3.54,3.54,0,0,0,195.23,274.43Z"/><path class="cls-4" d="M189.79,262.94c2.13.27,5.21,1.9,10.06,8.56-1.27,1.29-2.72,2.67-4,3.95a22.77,22.77,0,0,1-6.14-5.7,6.39,6.39,0,0,1-1.52-3.42C188.16,265.09,188.43,262.77,189.79,262.94Z"/><polygon class="cls-23" points="198.02 273.56 191.68 268.73 195.64 275.32 198.02 273.56"/><polygon class="cls-4" points="189.79 262.94 185.55 261.65 182.03 262.56 181.06 275.99 186.66 280.8 196.56 277.11 189.79 262.94"/><path class="cls-23" d="M186,266.82a22.45,22.45,0,0,1,5.66,10.68c-1.35.54-3.69,2-5.14,2.26a.76.76,0,0,1-.52,0,.55.55,0,0,1-.2-.3,11.06,11.06,0,0,1-.12-6.17A41.92,41.92,0,0,0,186,266.82Z"/><path class="cls-20" d="M183.84,257.21a18,18,0,0,1,.67,5.53c1,1.85,4,3.59,5.28,3.59-1.07-2.43-.34-7.32,0-9.37A23.78,23.78,0,0,0,183.84,257.21Z"/><path class="cls-21" d="M183.9,257.39a11.21,11.21,0,0,1,.38,1.62,12.39,12.39,0,0,0,5,4.16,31.4,31.4,0,0,1,.42-5.35c-.66-.33-1.31-.63-2-.92a15.39,15.39,0,0,0-3.72.29C183.93,257.26,183.91,257.32,183.9,257.39Z"/><path class="cls-6" d="M178.51,237.66a5.31,5.31,0,0,0-4.23,2.61,6.62,6.62,0,0,0-.58,4.7,15.25,15.25,0,0,0,1.92,4.48,3.49,3.49,0,0,1,.72,2.76,2.27,2.27,0,0,1-1.73,1.34,3.52,3.52,0,0,1-2.3-.4,2.45,2.45,0,0,0,1.24,1.61,6.13,6.13,0,0,0,2.1.7,5.58,5.58,0,0,0,3.94-.43,4.92,4.92,0,0,0,1.78-2.7,26.17,26.17,0,0,0,1.45-7.45c.09-1.82.42-4.25-.9-5.78A4.32,4.32,0,0,0,178.51,237.66Z"/><path class="cls-15" d="M182.82,244.88a14.44,14.44,0,0,0-.13-4.24,2.41,2.41,0,0,0-1-.42,6.7,6.7,0,0,0-4.17,6.1,14.75,14.75,0,0,0,.79,3.62,7.51,7.51,0,0,1,.31,3.66,3.73,3.73,0,0,1-1.25,2,4.28,4.28,0,0,0,2.18-.58,4.92,4.92,0,0,0,1.78-2.7A26.17,26.17,0,0,0,182.82,244.88Z"/><path class="cls-6" d="M196.77,257.5a8.64,8.64,0,0,0-.81-1.18,7.38,7.38,0,0,1-.57-1.36,7,7,0,0,1-.24-2.88c0-.43.42-2.41,1.18-1.32a7,7,0,0,1,.85,3.13A8.87,8.87,0,0,1,196.77,257.5Z"/><path class="cls-4" d="M180.65,240.57a3.88,3.88,0,0,0-1.12,2.76,1.63,1.63,0,0,0,.46,1.28,1.65,1.65,0,0,0,1.42.26,3.18,3.18,0,0,0,1.27-.74,6.63,6.63,0,0,0,1.48-2,2.94,2.94,0,0,0,.35-1.4,1.37,1.37,0,0,0-1-1.25,3.42,3.42,0,0,0-2,.41A3.62,3.62,0,0,0,180.65,240.57Z"/><path class="cls-6" d="M179.62,251.06a16,16,0,0,0,5.08,6.74,9.24,9.24,0,0,0,.14-3.4c-.14-1.53-.31-3.05-.52-4.58a16.07,16.07,0,0,0-.87-3.87c-.37-.92-1.8-3.27-3.22-2.18a3.7,3.7,0,0,0-.95,2.08,8.76,8.76,0,0,0-.21,2.5A9.75,9.75,0,0,0,179.62,251.06Z"/><path class="cls-20" d="M196.44,242.83c-1.61-2.15-5.09-3-8-2.41-2.47.51-5.45,2.25-6.47,4.26-.82,1.63-.64,4-.29,6a2.26,2.26,0,0,0-.53-.06,1.78,1.78,0,0,0-1.72,1.13,1.71,1.71,0,0,0-.07.49,1.67,1.67,0,0,0-.06.38c0,1.2,1.5,2.23,2.87,2.31a1.88,1.88,0,0,0,.58,0,9.41,9.41,0,0,0,5.39,5.65,6.21,6.21,0,0,0,5.19-.22,5,5,0,0,0,2.06-3,10.34,10.34,0,0,0,.41-3,13.22,13.22,0,0,1,0-2.18,10.76,10.76,0,0,1,.84-2.47C197.57,247.52,198,244.88,196.44,242.83Z"/><path class="cls-6" d="M190.26,247.76a2.12,2.12,0,0,0-1.57.93c-.14.28.31.53.46.24a1.8,1.8,0,0,1,1.26-.66,3.75,3.75,0,0,1,.75-.09c.21,0,.39.09.6.08s.15-.09.11-.17C191.65,247.66,190.67,247.7,190.26,247.76Z"/><path class="cls-6" d="M196.86,248.17c-.37-.47-1.52-.66-1.91-.12-.12.16.11.37.29.26a1.34,1.34,0,0,1,1.35.11C196.75,248.51,197,248.33,196.86,248.17Z"/><path class="cls-22" d="M189.73,253a1.55,1.55,0,0,0-.44-.17.37.37,0,1,0-.22.71.7.7,0,0,0,.76-.21C189.93,253.18,189.84,253,189.73,253Z"/><path class="cls-22" d="M195.41,252.76a.37.37,0,0,0-.32.12c-.24.22.13.55.37.34a.34.34,0,0,0,.14-.29A.19.19,0,0,0,195.41,252.76Z"/><path class="cls-6" d="M189.6,251.61a.48.48,0,1,0,0,.95A.48.48,0,1,0,189.6,251.61Z"/><path class="cls-6" d="M194.8,251.4a.44.44,0,1,0,0,.88A.44.44,0,1,0,194.8,251.4Z"/><path class="cls-22" d="M194.19,254.11c-.68.09-.91-1.11-1-1.54a.33.33,0,0,0-.63-.08c-.38,1,.18,2.74,1.59,2.65C194.93,255.09,194.9,254,194.19,254.11Z"/><path class="cls-12" d="M189.71,254.64c-.06-.08-.18-.18-.27-.12a.22.22,0,0,0-.07.09,1.88,1.88,0,0,0,.59,2.24,2.46,2.46,0,0,0,2.55.23c.57-.29.58-.87-.09-1a4.56,4.56,0,0,1-1.87-.7A3.81,3.81,0,0,1,189.71,254.64Z"/><path class="cls-6" d="M181.71,250.73a12.81,12.81,0,0,0,2.22,6.89c1.08-1.28.88-4.41-.05-5.78a30.78,30.78,0,0,0,6.71-3.23,12.84,12.84,0,0,0,4.7-5.3,10.78,10.78,0,0,1,2,4.49c3.23-2.29,2.6-8.78-2.26-8a9.83,9.83,0,0,0-15.65,5.88A5.06,5.06,0,0,0,181.71,250.73Z"/><path class="cls-14" d="M176.16,298.48s6.6,3.14,13,2.16c.76,7.07-.15,12.81-2.78,12.81s-10.76-1.33-10.76-1.33S170.15,311.54,176.16,298.48Z"/><path class="cls-14" d="M188.9,303.85l-.72-.06c0-.34,3-34.18-3.47-40.09a2.83,2.83,0,0,0-2.46-.79c-3.5.52-4.2,13.14-4.82,24.27a155.93,155.93,0,0,1-1.35,15.64l-.71-.12a154.24,154.24,0,0,0,1.33-15.56c.7-12.51,1.36-24.32,5.44-24.93a3.61,3.61,0,0,1,3.07,1C191.93,269.33,189,302.45,188.9,303.85Z"/><path class="cls-20" d="M182.08,273.17a26.16,26.16,0,0,0,3.23,11.17c5.74,0,14.47-3.52,20.61-13.64.83.61,2.62,1.44,3.63,1.1a3.48,3.48,0,0,0,2.11-2.05,2.56,2.56,0,0,0-.14-2.21,2.27,2.27,0,0,0-2.08-1c.84-.24,1.59-.61,2.43-.86-.72-1.26-2.75-1.47-4.16-.84s-2.26,1.92-3.27,3c-4.71,5.05-8.36,6.42-15.92,10.26a36.86,36.86,0,0,1-1.58-8.84C185.27,268.82,183.13,271.93,182.08,273.17Z"/><path class="cls-4" d="M184.85,263.88a3.32,3.32,0,0,0-2.82-1.32c-1.52.14-2.41,1.6-2.76,2.93a14,14,0,0,0,.34,7.67,43.87,43.87,0,0,0,3.15,7.22,24.42,24.42,0,0,1,6.92-3.21C189.05,275,188.09,268.1,184.85,263.88Z"/><path class="cls-6" d="M235.46,254.69H215.9a.73.73,0,0,0-.68.46l-5.3,13.51a.72.72,0,0,0,.67,1h19.56a.73.73,0,0,0,.68-.46l5.31-13.51A.73.73,0,0,0,235.46,254.69Z"/><path class="cls-6" d="M200.75,267.43h29.4v2.22h-29.4a1.11,1.11,0,0,1-1.11-1.11h0A1.11,1.11,0,0,1,200.75,267.43Z"/><path class="cls-17" d="M227.13,261h-5.89a.29.29,0,0,0-.27.19l-.47,1.32a.28.28,0,0,0,.27.38h5.89a.29.29,0,0,0,.27-.19l.47-1.32A.29.29,0,0,0,227.13,261Z"/><path class="cls-20" d="M183.75,367.64v5.56a1.44,1.44,0,0,0,1.51,1.36h4a1.6,1.6,0,0,0,1.66-2l-1.72-4.88Z"/><path class="cls-20" d="M209.63,365.84l1.09,5.26H225a1.1,1.1,0,0,0,.47-2.14l-11.81-4.33Z"/><path class="cls-4" d="M210.72,371.1H225a1.1,1.1,0,0,0,.47-2.14L220,367c-1.38,2.26-6.82,1.68-9.94,1.13Z"/><path class="cls-4" d="M189.23,374.56a1.6,1.6,0,0,0,1.66-2l-.55-1.57c-3.3,1-5.39.59-6.59.05v2.2a1.44,1.44,0,0,0,1.51,1.36Z"/><path class="cls-7" d="M178.74,305.06a1.74,1.74,0,0,0-.3,1.2,1.13,1.13,0,0,0,.38.88,1.3,1.3,0,0,0,.62.16c.53,0,1.07.07,1.6.08a1.31,1.31,0,0,0,.79-.15,1.34,1.34,0,0,0,.42-1,1.43,1.43,0,0,0-.06-.87,1.19,1.19,0,0,0-1-.48,6.47,6.47,0,0,1-1.32-.19A1.09,1.09,0,0,0,178.74,305.06Z"/></g></g></svg>