<svg xmlns="http://www.w3.org/2000/svg" xmlns:xlink="http://www.w3.org/1999/xlink" viewBox="0 0 808.54 431.55"><defs><style>.cls-1,.cls-12,.cls-15,.cls-16,.cls-18,.cls-19,.cls-28,.cls-36,.cls-37,.cls-38,.cls-6,.cls-7{fill:none;}.cls-2{isolation:isolate;}.cls-23,.cls-3{opacity:0.3;}.cls-10,.cls-17,.cls-21,.cls-23,.cls-24,.cls-26,.cls-3,.cls-30,.cls-31,.cls-32,.cls-33,.cls-34,.cls-5{mix-blend-mode:multiply;}.cls-4{fill:#cfddf6;}.cls-6{stroke:#cfddf6;stroke-width:1.3px;}.cls-15,.cls-16,.cls-19,.cls-37,.cls-6{stroke-miterlimit:10;}.cls-12,.cls-18,.cls-19,.cls-35,.cls-36,.cls-37,.cls-38,.cls-7{stroke:#222020;}.cls-12,.cls-18,.cls-28,.cls-35,.cls-38,.cls-7{stroke-linecap:round;}.cls-12,.cls-18,.cls-28,.cls-35,.cls-36,.cls-38,.cls-7{stroke-linejoin:round;}.cls-7{stroke-width:1.94px;}.cls-10,.cls-17,.cls-33,.cls-8{fill:#7198fc;}.cls-9{fill:#222020;}.cls-10{opacity:0.5;}.cls-11,.cls-14,.cls-35{fill:#fff;}.cls-12{stroke-width:0.58px;}.cls-13{clip-path:url(#clip-path);}.cls-14{opacity:0.35;mix-blend-mode:screen;}.cls-15{stroke:#7198fc;stroke-width:1.63px;}.cls-16,.cls-28{stroke:#fff;}.cls-16{stroke-width:1.08px;}.cls-17,.cls-30{opacity:0.4;}.cls-18,.cls-28,.cls-35{stroke-width:0.8px;}.cls-19{stroke-width:1.86px;}.cls-20,.cls-21,.cls-34{fill:#ffc764;}.cls-21{opacity:0.53;}.cls-22,.cls-23,.cls-24{fill:#008a86;}.cls-25,.cls-26{fill:#c23302;}.cls-27,.cls-31,.cls-32{fill:#f2a191;}.cls-29,.cls-30{fill:#ff75a9;}.cls-31{opacity:0.37;}.cls-32{opacity:0.74;}.cls-33{opacity:0.8;}.cls-34{opacity:0.6;}.cls-36{stroke-width:0.19px;}.cls-37{stroke-width:0.88px;}.cls-38{stroke-width:0.77px;}</style><clipPath id="clip-path" transform="translate(-23.66 -32.21)"><rect class="cls-1" width="500" height="500"/></clipPath></defs><g class="cls-2"><g id="Layer_2" data-name="Layer 2"><g id="BACKGROUND"><g class="cls-3"><path class="cls-4" d="M449.3,208.3c-17.08-31.85-46.29-56.62-79.82-70.11-38.86-15.65-81.78-15.61-123.67-15.64q-57.19,0-114.27,4.58c-10.08.81-20.62,1.9-29.06,7.48s-13.79,17.18-9.09,26.14C97,167.7,105.28,170.86,113,172.16s15.86,1.38,23,4.66,13,11.27,10.59,18.74c-1.58,4.87-6.27,8.16-11.17,9.66s-10.09,1.54-15.19,2C89.68,210,61.08,229.13,46.93,256.37s-13.38,61.68,2,88.26,44.79,44.46,75.45,45.83l261.77-2.6c34.31-11.35,61.84-40.31,73.24-74.6S466.38,240.14,449.3,208.3Z" transform="translate(-23.66 -32.21)"/></g><g class="cls-5"><line class="cls-6" x1="376.73" y1="84.64" x2="461.64" y2="84.64"/><line class="cls-6" x1="376.73" y1="103.6" x2="439.6" y2="103.6"/><line class="cls-6" x1="403.58" y1="86.65" x2="403.58" y2="102.4"/><line class="cls-6" x1="447.73" y1="83.54" x2="447.73" y2="65.48"/><line class="cls-6" x1="60.06" y1="244.33" x2="130.72" y2="244.33"/><line class="cls-6" x1="60.06" y1="260.11" x2="112.38" y2="260.11"/><line class="cls-6" x1="82.4" y1="246" x2="82.4" y2="259.11"/><line class="cls-6" x1="119.15" y1="243.42" x2="119.15" y2="228.38"/></g></g><g id="OBJECTS"><line class="cls-7" x1="7.03" y1="58.76" x2="67.52" y2="410.55"/><polyline class="cls-7" points="0.97 96.29 109.18 0.97 114.61 9.49"/><path class="cls-8" d="M102.26,443.38c-2.59-13.33-18.73-13.33-21.32,0,0,0-28.32,3.14-37.66,19.46h96.64C130.57,446.52,102.26,443.38,102.26,443.38Z" transform="translate(-23.66 -32.21)"/><path class="cls-9" d="M95.05,442.76a3.45,3.45,0,1,1-3.45-3.45A3.45,3.45,0,0,1,95.05,442.76Z" transform="translate(-23.66 -32.21)"/><path class="cls-8" d="M162.93,46.79c-18-21.41-39-7.12-25.68,17.46,0,0-12.52,26,.24,50.59l72.39-49.21C191.68,44.71,162.93,46.79,162.93,46.79Z" transform="translate(-23.66 -32.21)"/><path class="cls-8" d="M210.15,66c4.6,6.77-7.87,23.27-27.86,36.86S142.36,122,137.75,115.23c-3.58-5.27,3.18-16.42,15.76-27.52a126.53,126.53,0,0,1,25.26-17.17C193.71,62.93,206.57,60.75,210.15,66Z" transform="translate(-23.66 -32.21)"/><path class="cls-10" d="M210.15,66c4.6,6.77-7.87,23.27-27.86,36.86S142.36,122,137.75,115.23c-3.58-5.27,3.18-16.42,15.76-27.52a126.53,126.53,0,0,1,25.26-17.17C193.71,62.93,206.57,60.75,210.15,66Z" transform="translate(-23.66 -32.21)"/><path class="cls-11" d="M180.58,72.75a15.53,15.53,0,0,1-25.69,17.46,16.11,16.11,0,0,1-1.38-2.5,126.53,126.53,0,0,1,25.26-17.17A16.27,16.27,0,0,1,180.58,72.75Z" transform="translate(-23.66 -32.21)"/><path class="cls-12" d="M180.58,72.75a15.53,15.53,0,0,1-25.69,17.46" transform="translate(-23.66 -32.21)"/><path class="cls-11" d="M161.24,45.35a5.88,5.88,0,0,0-1.53.41c-.46.17-.94.33-1.39.51-.91.38-1.81.79-2.7,1.22a50.38,50.38,0,0,0-5.28,2.94A49.27,49.27,0,0,0,141.17,58c-.76.79-1.47,1.63-2.16,2.48a24.61,24.61,0,0,0-1.89,2.77c-.22.36.31.62.56.37.7-.68,1.41-1.35,2.1-2s1.39-1.37,2.1-2,1.3-1.22,2-1.85,1.49-1.24,2.24-1.84a59.12,59.12,0,0,1,9.7-6.28l.73-.37.07,0,.16-.08.35-.17c.48-.24,1-.46,1.47-.69l1.49-.67.74-.33a5.1,5.1,0,0,0,.87-.45A.79.79,0,0,0,161.24,45.35Z" transform="translate(-23.66 -32.21)"/><g class="cls-13"><path class="cls-14" d="M137.49,114.84,200.17,462.2l632,1.16L208.23,64.2C185.63,56.49,130.24,99.32,137.49,114.84Z" transform="translate(-23.66 -32.21)"/></g><line class="cls-15" x1="358.26" y1="177.14" x2="358.26" y2="180.81"/><line class="cls-15" x1="358.26" y1="185.26" x2="358.26" y2="188.93"/><line class="cls-15" x1="364.15" y1="183.04" x2="360.49" y2="183.04"/><line class="cls-15" x1="356.04" y1="183.04" x2="352.37" y2="183.04"/><line class="cls-15" x1="298.68" y1="121.45" x2="298.68" y2="125.12"/><line class="cls-15" x1="298.68" y1="129.57" x2="298.68" y2="133.24"/><line class="cls-15" x1="304.57" y1="127.35" x2="300.91" y2="127.35"/><line class="cls-15" x1="296.46" y1="127.35" x2="292.79" y2="127.35"/><line class="cls-15" x1="148.75" y1="152.82" x2="148.75" y2="156.48"/><line class="cls-15" x1="148.75" y1="160.93" x2="148.75" y2="164.6"/><line class="cls-15" x1="154.64" y1="158.71" x2="150.97" y2="158.71"/><line class="cls-15" x1="146.52" y1="158.71" x2="142.85" y2="158.71"/><line class="cls-15" x1="199.75" y1="255.68" x2="199.75" y2="259.34"/><line class="cls-15" x1="199.75" y1="263.79" x2="199.75" y2="267.46"/><line class="cls-15" x1="205.64" y1="261.57" x2="201.97" y2="261.57"/><line class="cls-15" x1="197.52" y1="261.57" x2="193.86" y2="261.57"/><path class="cls-8" d="M162.42,383.56H274.56V351.71H162.42a15.93,15.93,0,0,0-15.93,15.93h0A15.93,15.93,0,0,0,162.42,383.56Z" transform="translate(-23.66 -32.21)"/><path class="cls-16" d="M178.34,351.71a15.92,15.92,0,0,0-15.92,15.93h0a15.92,15.92,0,0,0,15.92,15.92" transform="translate(-23.66 -32.21)"/><path class="cls-16" d="M184.59,351.71a15.93,15.93,0,0,0-15.92,15.93h0a15.92,15.92,0,0,0,15.92,15.92" transform="translate(-23.66 -32.21)"/><path class="cls-16" d="M243.39,351.71a15.93,15.93,0,0,0-15.93,15.93h0a15.93,15.93,0,0,0,15.93,15.92" transform="translate(-23.66 -32.21)"/><path class="cls-8" d="M260.55,383.56h77.93V351.71H260.55a15.93,15.93,0,0,0-15.93,15.93h0A15.93,15.93,0,0,0,260.55,383.56Z" transform="translate(-23.66 -32.21)"/><path class="cls-17" d="M260.55,383.56h77.93V351.71H260.55a15.93,15.93,0,0,0-15.93,15.93h0A15.93,15.93,0,0,0,260.55,383.56Z" transform="translate(-23.66 -32.21)"/><path class="cls-11" d="M261.61,357.61h76.87v20.05H261.61a10,10,0,0,1,0-20.05Z" transform="translate(-23.66 -32.21)"/><line class="cls-18" x1="249.14" y1="331.88" x2="228.59" y2="331.88"/><line class="cls-18" x1="314.83" y1="339.98" x2="228.59" y2="339.98"/><line class="cls-19" x1="314.83" y1="331.88" x2="261.92" y2="331.88"/><path class="cls-20" d="M186.33,308.67a21.52,21.52,0,1,0,0,43h95.31v-43Z" transform="translate(-23.66 -32.21)"/><path class="cls-20" d="M262.7,308.67a21.52,21.52,0,0,0,0,43H368.05v-43Z" transform="translate(-23.66 -32.21)"/><path class="cls-21" d="M262.7,308.67a21.52,21.52,0,0,0,0,43H368.05v-43Z" transform="translate(-23.66 -32.21)"/><path class="cls-11" d="M264.15,316.64a13.55,13.55,0,1,0,0,27.1h103.9v-27.1Z" transform="translate(-23.66 -32.21)"/><line class="cls-18" x1="272.06" y1="303.37" x2="344.39" y2="303.37"/><line class="cls-18" x1="228.61" y1="303.37" x2="254.7" y2="303.37"/><line class="cls-18" x1="227.39" y1="293.57" x2="344.39" y2="293.57"/><path class="cls-18" d="M236.85,314.68c-7.62,8.22-7.93,25.63.86,32.68" transform="translate(-23.66 -32.21)"/><path class="cls-18" d="M180.59,314.68c-7.63,8.22-7.94,25.63.86,32.68" transform="translate(-23.66 -32.21)"/><path class="cls-18" d="M188.07,314.68c-7.63,8.22-7.94,25.63.86,32.68" transform="translate(-23.66 -32.21)"/><path class="cls-22" d="M122.07,383.5H296.55A19.5,19.5,0,0,1,316,403v9.25a19.5,19.5,0,0,1-19.5,19.5H122.07a0,0,0,0,1,0,0V383.5A0,0,0,0,1,122.07,383.5Z" transform="translate(414.45 783.03) rotate(180)"/><path class="cls-23" d="M204.31,421.65c-3.16-2.38-5.36-7.76-5.36-14s2.2-11.65,5.36-14v-1.32H169.37c-5,0-9,6.87-9,15.35s4,15.35,9,15.35h34.94Z" transform="translate(-23.66 -32.21)"/><path class="cls-22" d="M224.87,383.5H328.19a19.5,19.5,0,0,1,19.5,19.5v9.25a19.5,19.5,0,0,1-19.5,19.5H224.87a0,0,0,0,1,0,0V383.5a0,0,0,0,1,0,0Z" transform="translate(548.89 783.03) rotate(180)"/><path class="cls-24" d="M249,431.74h98.69V383.5H249a24.12,24.12,0,0,0-24.12,24.12h0A24.12,24.12,0,0,0,249,431.74Z" transform="translate(-23.66 -32.21)"/><path class="cls-18" d="M139.39,386.75a24.08,24.08,0,0,0,0,41.73" transform="translate(-23.66 -32.21)"/><path class="cls-18" d="M163.34,386.75a24.08,24.08,0,0,0,0,41.73" transform="translate(-23.66 -32.21)"/><path class="cls-23" d="M143,407.62a24.12,24.12,0,0,1,24.12-24.12h-9.65a24.12,24.12,0,1,0,0,48.24h9.65A24.12,24.12,0,0,1,143,407.62Z" transform="translate(-23.66 -32.21)"/><path class="cls-23" d="M216,407.62A24.11,24.11,0,0,1,240.1,383.5h-9.64a24.12,24.12,0,0,0,0,48.24h9.64A24.11,24.11,0,0,1,216,407.62Z" transform="translate(-23.66 -32.21)"/><path class="cls-11" d="M250.6,392.44h97.08V422.8H250.6a15.18,15.18,0,0,1,0-30.36Z" transform="translate(-23.66 -32.21)"/><line class="cls-18" x1="212.2" y1="379.02" x2="288.74" y2="379.02"/><line class="cls-18" x1="303.51" y1="379.02" x2="324.02" y2="379.02"/><line class="cls-18" x1="324.02" y1="368.41" x2="213.27" y2="368.41"/><path class="cls-25" d="M337.49,463.36H226.14V431.74H337.49a15.81,15.81,0,0,1,15.82,15.81h0A15.81,15.81,0,0,1,337.49,463.36Z" transform="translate(-23.66 -32.21)"/><path class="cls-25" d="M270.1,463.36H158.74V431.74H270.1a15.81,15.81,0,0,1,15.81,15.81h0A15.81,15.81,0,0,1,270.1,463.36Z" transform="translate(-23.66 -32.21)"/><path class="cls-26" d="M270.1,463.36H158.74V431.74H270.1a15.81,15.81,0,0,1,15.81,15.81h0A15.81,15.81,0,0,1,270.1,463.36Z" transform="translate(-23.66 -32.21)"/><path class="cls-18" d="M270.1,431.74a15.81,15.81,0,0,1,15.81,15.81h0a15.81,15.81,0,0,1-15.81,15.81" transform="translate(-23.66 -32.21)"/><path class="cls-18" d="M335.23,431.74c6.29,0,11.39,7.08,11.39,15.81h0c0,8.73-5.1,15.81-11.39,15.81" transform="translate(-23.66 -32.21)"/><path class="cls-11" d="M269,437.6H158.74v19.9H269a9.95,9.95,0,0,0,0-19.9Z" transform="translate(-23.66 -32.21)"/><line class="cls-18" x1="135.08" y1="420.52" x2="253.88" y2="420.52"/><path class="cls-20" d="M238.08,444.61s1.37,9.14-5.43,15.71l-5.53-2.82-9,2.82c6.79-6.57,5.43-15.71,5.43-15.71" transform="translate(-23.66 -32.21)"/><line class="cls-18" x1="254.89" y1="412.4" x2="135.08" y2="412.4"/><path class="cls-27" d="M354.17,270.8c.7-.31,9.95,4.26,10.19,2.26s-9.4-5-8.55-5.83,10.24,2.41,10.75,1.28-16.42-6.65-7-4.93,9.67.18,4.39-1.76c-3.65-1.35-8.63-3.46-11.35-4.62a1.29,1.29,0,0,1-.49-2.11c1.5-1.33,3.6-3.39,3.59-4.4,0-1.55-12.71,3.31-12.71,3.31h0c-2-2.64-20.25-12.95-33.55-18.69-8.23-3.55-19.19-24.11-21.71-15.48L278,222.29c-2.59,8.87,1.49,12,13.28,22.79,10,9.16,44.14,21.2,47.22,20.87h0c1.13,1,20.19,12,21.13,9.16C359.92,274.33,353.47,271.12,354.17,270.8Z" transform="translate(-23.66 -32.21)"/><path class="cls-25" d="M285.78,209.5c-6.29,1.44-11.33,10.14-7.67,19.87,7.4,19.69,15.16,30.74,15.16,30.74s31.44-26.79,30.6-27.47C303.64,216.37,298.44,207.52,285.78,209.5Z" transform="translate(-23.66 -32.21)"/><path class="cls-27" d="M318.31,359.54,326.67,401l34.24-11s1-17.33-21-10.28L339,355.77Z" transform="translate(-23.66 -32.21)"/><path class="cls-9" d="M322.29,385.1,326.67,401l34.24-11s1-17.33-21-10.28Z" transform="translate(-23.66 -32.21)"/><path class="cls-28" d="M341.58,379.6a5.58,5.58,0,0,0-1.72,3,.87.87,0,0,0,.08.71c.25.31.75.18,1.09,0,1.34-.77,2.31-2.13,3.75-2.66a.6.6,0,0,1,.54,0c.27.17.14.59,0,.87a20.7,20.7,0,0,0-1,2.37,2.05,2.05,0,0,0-.16.88.74.74,0,0,0,.55.65,1.1,1.1,0,0,0,.81-.39,21.4,21.4,0,0,0,4.12-5.25" transform="translate(-23.66 -32.21)"/><path class="cls-28" d="M323,387.67a11.42,11.42,0,0,1,5.34,1.94,15.13,15.13,0,0,1,4.08,3.14,6.05,6.05,0,0,1,1.54,4.76" transform="translate(-23.66 -32.21)"/><path class="cls-29" d="M293.44,260.81s41.11,30.45,48.92,51.44,5.41,46,5.41,46l-32.19,5.89s.63-6.14-8.88-29.73c-3.52-8.74-11.49-22.32-21.35-23.94-12.74-2.09-19.33-17.68-17.63-23C270.38,279.12,293.44,260.81,293.44,260.81Z" transform="translate(-23.66 -32.21)"/><path class="cls-30" d="M293.44,260.81s41.11,30.45,48.92,51.44,5.41,46,5.41,46l-32.19,5.89s.63-6.14-8.88-29.73c-3.52-8.74-11.49-22.32-21.35-23.94-12.74-2.09-19.33-17.68-17.63-23C270.38,279.12,293.44,260.81,293.44,260.81Z" transform="translate(-23.66 -32.21)"/><path class="cls-28" d="M334.74,358.84a226.77,226.77,0,0,0-20.57-52.59C311,300.5,307.49,294.7,302,291.09" transform="translate(-23.66 -32.21)"/><path class="cls-27" d="M290.34,362.08l2.27,42.19,35.48-5.9s3.47-17-19.3-13.22l2.6-23.79Z" transform="translate(-23.66 -32.21)"/><path class="cls-9" d="M290.57,388l2,16.32,35.48-5.9s3.47-17-19.3-13.22Z" transform="translate(-23.66 -32.21)"/><path class="cls-28" d="M310.46,385.3a5.59,5.59,0,0,0-2.15,2.78.84.84,0,0,0,0,.71c.2.34.7.28,1.07.14,1.43-.56,2.59-1.77,4.1-2.08a.61.61,0,0,1,.53.07c.24.22.06.61-.13.87a17.73,17.73,0,0,0-1.36,2.19,2.05,2.05,0,0,0-.29.85.74.74,0,0,0,.45.72,1.06,1.06,0,0,0,.86-.27,20.89,20.89,0,0,0,4.83-4.6" transform="translate(-23.66 -32.21)"/><path class="cls-28" d="M291,390.6a11.55,11.55,0,0,1,5,2.7,15.11,15.11,0,0,1,3.58,3.69,6.08,6.08,0,0,1,.84,4.94" transform="translate(-23.66 -32.21)"/><path class="cls-29" d="M280,260.79s36.27,36.09,41,58-1.31,46.32-1.31,46.32L287,366.27s1.52-6-4.47-30.7c-2.22-9.16-8.14-23.74-17.66-26.77-12.31-3.92-16.57-20.29-14.13-25.31C254.56,275.58,280,260.79,280,260.79Z" transform="translate(-23.66 -32.21)"/><path class="cls-28" d="M306.7,363.77a227.16,227.16,0,0,0-12.75-55c-2.26-6.13-4.93-12.39-9.8-16.75" transform="translate(-23.66 -32.21)"/><path class="cls-9" d="M257.3,172.88c-.06-6.42.93-10.28,4.46-18.69s10.83-6.85,10.83-6.85c8.62-.06,27,1.55,30.47,14.49.85,3.19,3.46,11.82-2.68,15.41,0,0-8.11,17.19-24.2,21.37C270.18,200.17,257.39,182.58,257.3,172.88Z" transform="translate(-23.66 -32.21)"/><path class="cls-9" d="M275.61,150.43A11.84,11.84,0,1,0,261,158.6,11.84,11.84,0,0,0,275.61,150.43Z" transform="translate(-23.66 -32.21)"/><path class="cls-9" d="M255.11,155.25a7.12,7.12,0,1,0-8.79,4.91A7.12,7.12,0,0,0,255.11,155.25Z" transform="translate(-23.66 -32.21)"/><path class="cls-9" d="M242.17,159.55a4.19,4.19,0,1,0-5.18,2.9A4.19,4.19,0,0,0,242.17,159.55Z" transform="translate(-23.66 -32.21)"/><path class="cls-27" d="M262.67,176.27a.78.78,0,0,1-1,.53c-1.76-.57-6.13-1.44-8.18,3s4.17,7.39,6.8,8.39a3.12,3.12,0,0,1,1.71,1.6c1.06,2.27,3.59,7.39,3.31,12.56-.62,11.42-10.44,13.6-10.44,13.6s18.53,3.29,28.51.2c0,0-.88-15.14,2.31-15.34,5.64-.36,13-1.88,14.84-21,1.7-18-12.49-21-15.75-21.49C282,158,268.73,155.09,262.67,176.27Z" transform="translate(-23.66 -32.21)"/><path class="cls-18" d="M285.5,200.79a74.13,74.13,0,0,1-12.25-4.43" transform="translate(-23.66 -32.21)"/><path class="cls-9" d="M262.67,176.27s14.46,1.6,19.27-4.15l7.22-6.53a8.93,8.93,0,0,0,5.12,7.86c5.25,2.5,9,3.35,10-5.06s-6-14.7-20.65-14.18c-21.89.79-23.15,15.63-23.15,15.63" transform="translate(-23.66 -32.21)"/><path class="cls-18" d="M255.93,180.15s4.45-4.76,5.43,3.84" transform="translate(-23.66 -32.21)"/><path class="cls-9" d="M285.53,178.64c-.88.53.59-2,1.75-2.22a2,2,0,0,1,2.46,1.41A6.33,6.33,0,0,0,285.53,178.64Z" transform="translate(-23.66 -32.21)"/><path class="cls-9" d="M298.06,178.72a6.34,6.34,0,0,0-3.62-.63,2,2,0,0,1,2.5-1.33,2.63,2.63,0,0,1,1.27,1S298.45,178.88,298.06,178.72Z" transform="translate(-23.66 -32.21)"/><path class="cls-31" d="M274.24,188.38A4.91,4.91,0,1,0,280,184,5.16,5.16,0,0,0,274.24,188.38Z" transform="translate(-23.66 -32.21)"/><path class="cls-31" d="M296.55,195c-1.09-1.2-1.08-2.85-.74-4.69a5.35,5.35,0,0,1,3.65-4.43S298.23,192.68,296.55,195Z" transform="translate(-23.66 -32.21)"/><path class="cls-32" d="M292.24,180.36s1.51,8,1.21,7.9l-2.61-.45Z" transform="translate(-23.66 -32.21)"/><path class="cls-9" d="M293.73,182.51c-.09.78.13,1.45.51,1.49s.76-.54.85-1.32-.13-1.45-.5-1.5S293.83,181.73,293.73,182.51Z" transform="translate(-23.66 -32.21)"/><path class="cls-9" d="M287.56,181.84c-.09.78.13,1.45.51,1.5s.76-.55.85-1.33-.13-1.45-.5-1.49S287.66,181.06,287.56,181.84Z" transform="translate(-23.66 -32.21)"/><path class="cls-11" d="M287.68,188.7l6.88,2.27s-2.94,3.32-4.91,1.89A5.59,5.59,0,0,1,287.68,188.7Z" transform="translate(-23.66 -32.21)"/><path class="cls-25" d="M285.06,212c-.35.93,13.73,13.57,16,22.33,1.72,6.81,14.66,38.8,14.83,39.25a248.24,248.24,0,0,1-71.65,13.19c0-9.6.74-58.87,4.42-70.26,0,0,6.07-3,9.36-3.3C258,213.23,270.19,222.62,285.06,212Z" transform="translate(-23.66 -32.21)"/><path class="cls-11" d="M258,213.23l6.3-8.52L280.47,215l.5,6.56a3.43,3.43,0,0,1-5.28,3.14Z" transform="translate(-23.66 -32.21)"/><path class="cls-11" d="M285,207.79,280.47,215l3.54,6.52a1.15,1.15,0,0,0,2.15-.58l4.83-6.16Z" transform="translate(-23.66 -32.21)"/><path class="cls-11" d="M284.51,225.9c.39,1,.45,2,.12,2.12s-.91-.62-1.3-1.67-.45-2-.13-2.12S284.12,224.86,284.51,225.9Z" transform="translate(-23.66 -32.21)"/><polygon class="cls-29" points="358.94 218.69 342.05 185.28 302.83 243.69 324.67 272.65 358.94 218.69"/><polygon class="cls-8" points="358.94 218.69 342.05 185.28 302.83 243.69 324.67 272.65 358.94 218.69"/><polygon class="cls-11" points="340.09 191.09 356.52 220.7 353.1 225.06 310.64 201.21 317.11 196.63 321.23 198.9 323.77 195.24 329.95 199.75 335.91 191.35 340.09 191.09"/><polygon class="cls-8" points="318.25 273.01 274.89 250.57 309.01 197.45 352.37 219.89 318.25 273.01"/><path class="cls-18" d="M316.94,272.25l15.53-24.19a7.35,7.35,0,0,1,9.55-2.55l12.82,6.64a7.33,7.33,0,0,1,2.8,10.48l-15.53,24.19a7.35,7.35,0,0,1-9.55,2.55l-12.82-6.64A7.33,7.33,0,0,1,316.94,272.25Z" transform="translate(-23.66 -32.21)"/><path class="cls-8" d="M376,252.1c3,1.23,6.57-1.2,6.57-1.2l-34.27,54c-3.94,1.78-6.42.36-6.42.36" transform="translate(-23.66 -32.21)"/><path class="cls-33" d="M376,252.1c3,1.23,6.57-1.2,6.57-1.2l-34.27,54c-3.94,1.78-6.42.36-6.42.36" transform="translate(-23.66 -32.21)"/><path class="cls-18" d="M353.61,232c7.47,4.73,19.69,15.57,19.69,15.57-1.07-.74-28.41-16.42-28.41-16.42" transform="translate(-23.66 -32.21)"/><line class="cls-18" x1="335.91" y1="191.35" x2="349.64" y2="215.32"/><path class="cls-27" d="M340.5,276.38c.55-.51,10.64.75,10.21-1.19s-10.36-1.62-9.83-2.66,10.3-1.07,10.41-2.29-17.42-.88-8.07-2.33,9.06-3,3.52-3.06c-3.84-.07-9.15-.42-12.05-.63a1.26,1.26,0,0,1-1.14-1.8c1-1.73,2.26-4.32,1.92-5.25-.53-1.44-10.76,7.18-10.76,7.18h0c-2.76-1.79-23-5.5-37.24-6.55-8.8-.64-25.64-16.22-25.19-7.38L254,255.85c.46,9.09,5.26,10.68,19.72,16.91,12.28,5.28,47.9,5.46,50.65,4.16h0c1.37.57,22.63,4.6,22.6,1.71C347,277.81,340,276.9,340.5,276.38Z" transform="translate(-23.66 -32.21)"/><path class="cls-25" d="M256.05,214.91c-6.35-1.17-14.42,4.82-14.91,15.21-1,21,1.75,34.23,1.75,34.23s39.48-12.16,39-13.12C269.74,228.28,268.46,218.1,256.05,214.91Z" transform="translate(-23.66 -32.21)"/><path class="cls-11" d="M219.9,189.71l6-6-15.41-4.92,1.39,8.39s-22.65,23.82-22.72,24c-.63,2,6.69,6.26,16.46,9.38s18.22,3.86,18.84,1.9C224.54,222.25,219.9,189.71,219.9,189.71Z" transform="translate(-23.66 -32.21)"/><path class="cls-20" d="M220.42,202.3a.09.09,0,0,1,0,0c-.38,1.18-4.33,1-8.82-.46s-7.83-3.56-7.45-4.74c0,0,0,0,0-.05-5.85,6.17-13,13.71-13,13.84-.57,1.77,6,5.65,14.87,8.47s16.46,3.49,17,1.72C223.06,221,221.61,210.71,220.42,202.3Z" transform="translate(-23.66 -32.21)"/><path class="cls-20" d="M211.59,201.89c4.49,1.44,8.44,1.64,8.82.46a.09.09,0,0,0,0,0c0-.17,0-.35-.07-.52-.55-1.21-3.54-2.94-7.39-4.17s-7.3-1.56-8.45-.89c-.11.13-.23.25-.35.38s0,0,0,.05C203.76,198.33,207.09,200.45,211.59,201.89Z" transform="translate(-23.66 -32.21)"/><path class="cls-34" d="M211.59,201.89c4.49,1.44,8.44,1.64,8.82.46a.09.09,0,0,0,0,0c0-.17,0-.35-.07-.52-.55-1.21-3.54-2.94-7.39-4.17s-7.3-1.56-8.45-.89c-.11.13-.23.25-.35.38s0,0,0,.05C203.76,198.33,207.09,200.45,211.59,201.89Z" transform="translate(-23.66 -32.21)"/><path class="cls-18" d="M204.51,196.72c-.11.13-.23.25-.35.38s0,0,0,.05c-.38,1.18,3,3.3,7.45,4.74s8.44,1.64,8.82.46a.09.09,0,0,0,0,0c0-.17,0-.35-.07-.52" transform="translate(-23.66 -32.21)"/><path class="cls-11" d="M225.9,183.68c-.31,1-4,.62-8.25-.74s-7.47-3.22-7.16-4.18,4-.67,8.27.69S226.21,182.72,225.9,183.68Z" transform="translate(-23.66 -32.21)"/><path class="cls-35" d="M225.9,183.68c-.31,1-4,.62-8.25-.74s-7.47-3.22-7.16-4.18" transform="translate(-23.66 -32.21)"/><circle class="cls-20" cx="401.28" cy="242.31" r="14.82" transform="matrix(0.04, -1, 1, 0.04, 118.23, 600.55)"/><path class="cls-9" d="M406.48,240.58c-.51,1.57-1.59,2.62-2.41,2.36s-1.08-1.76-.57-3.33,1.59-2.62,2.41-2.35S407,239,406.48,240.58Z" transform="translate(-23.66 -32.21)"/><path class="cls-9" d="M400.81,238.74c-.51,1.57-1.59,2.62-2.42,2.35s-1.08-1.76-.57-3.32,1.59-2.62,2.42-2.35S401.32,237.17,400.81,238.74Z" transform="translate(-23.66 -32.21)"/><path class="cls-18" d="M410.71,243.15a9.58,9.58,0,1,1-18.21-5.93" transform="translate(-23.66 -32.21)"/><path class="cls-8" d="M206.06,148.72a19.6,19.6,0,0,1-8,15.81c-.43.31-.86.6-1.31.88l-.47.28a19.5,19.5,0,0,1-9.83,2.64c-.38,0-.75,0-1.12,0l-.54,0a18.23,18.23,0,0,1-2.68-.41,19.63,19.63,0,0,1-15.28-19.13c0-.45,0-.9,0-1.34a14.25,14.25,0,0,1,.16-1.48c0-.11,0-.22,0-.33a19.64,19.64,0,0,1,15.23-16l.33-.07.61-.11a19.84,19.84,0,0,1,3.2-.26A19.61,19.61,0,0,1,206.06,148.72Z" transform="translate(-23.66 -32.21)"/><path class="cls-22" d="M186,164.47a4.13,4.13,0,0,0-1.86.95,23.8,23.8,0,0,1-2,2.43,19.63,19.63,0,0,1-15.28-19.13c0-.46,0-.9,0-1.34a3.48,3.48,0,0,1,4.73.91c1.22,2.09.58,3.33,3.61,3.44,2.38.29,1.5,2.94,2.2,4.5a2.51,2.51,0,0,0,3.23,1.48c1.63-.89,1.53-3.55,3.13-4.86,1.14-1.21,3.51-1.31,4.34.3s-.73,3.27-.51,4.94c.08.68.65,1.13,1,1.7C189.59,161.77,187.88,163.89,186,164.47Z" transform="translate(-23.66 -32.21)"/><path class="cls-22" d="M180.25,140.86c.9,2-2.08,3.81-3.27,1.75-.85-1.46.27-1.89.44-3.09-.22-1-1.91-1.46-2.14-2.9-.2-1,.51-1.86,1-2.67s1-1.71,1.92-2a1.34,1.34,0,0,1,1.53.44c.64,1-1.68,1.42-.65,2.38.44.43,1.14.5,1.48,1.05a1.33,1.33,0,0,1,.44.83C180.93,138.08,178.78,138.13,180.25,140.86Z" transform="translate(-23.66 -32.21)"/><path class="cls-22" d="M182.68,140.24a2.09,2.09,0,0,1-.1,1.11c-.2.62-1.25.8-1.42.07.17-1.45-1-1.36-.64-2.66a.84.84,0,0,1,1-.38C182.27,138.56,182.59,139.53,182.68,140.24Z" transform="translate(-23.66 -32.21)"/><path class="cls-22" d="M206.06,148.72a19.6,19.6,0,0,1-8,15.81c-1.67-.43-3.53-1.6-3.41-3.48.11-.89.81-1.5,1.24-2.24,1.07-1.78-1.42-3-.24-5.53.59-1.45,2.14-2,3.22-3a5.81,5.81,0,0,0,1.31-6c-.76-2.2-3.13-3.21-4.25-5.17-.27-.39-.28-.94-.65-1.25-1-.49-2.38.68-2.77-1-1.38-3.65-10.35.56-10.23-4.56a7.75,7.75,0,0,1,1-3,19.84,19.84,0,0,1,3.2-.26A19.61,19.61,0,0,1,206.06,148.72Z" transform="translate(-23.66 -32.21)"/><path class="cls-20" d="M249.47,106.66a12.15,12.15,0,1,0-23.25,7.06c2,6.53,16.15,13.41,16.15,13.41S251.45,113.19,249.47,106.66Z" transform="translate(-23.66 -32.21)"/><path class="cls-8" d="M246.25,123l-9.37,2.85a1.38,1.38,0,0,1-1.72-.94h0a1.38,1.38,0,0,1,.91-1.73l9.37-2.85a1.39,1.39,0,0,1,1.72.94h0A1.38,1.38,0,0,1,246.25,123Z" transform="translate(-23.66 -32.21)"/><path class="cls-9" d="M243.6,130.5h0a5.73,5.73,0,0,1-7.11-3.87l-.29-1,10.87-3.3.29,1A5.71,5.71,0,0,1,243.6,130.5Z" transform="translate(-23.66 -32.21)"/><path class="cls-18" d="M240.49,124.05l-4.93-16.22a2.34,2.34,0,0,0-2.92-1.56h0a2.33,2.33,0,0,0-1.56,2.92l.24.79a2.33,2.33,0,0,0,2.92,1.56l7.35-2.23a2.34,2.34,0,0,0,1.56-2.92l-.24-.79A2.33,2.33,0,0,0,240,104l-.23.07A2.33,2.33,0,0,0,238.2,107l4.93,16.22" transform="translate(-23.66 -32.21)"/><rect class="cls-8" x="184.56" y="238.48" width="27.59" height="40.35" rx="2.57" transform="translate(-135.27 125.62) rotate(-34.5)"/><rect class="cls-36" x="179.29" y="243.7" width="23.01" height="7.78" rx="1.54" transform="translate(-130.33 119.39) rotate(-34.5)"/><rect class="cls-20" x="180.38" y="244.78" width="20.83" height="5.6" rx="0.45" transform="translate(-130.33 119.39) rotate(-34.5)"/><rect class="cls-4" x="185.64" y="257.64" width="4.96" height="4.25" rx="0.93" transform="translate(-137.7 120.02) rotate(-34.5)"/><rect class="cls-4" x="190.62" y="254.22" width="4.97" height="4.25" rx="0.93" transform="translate(-134.88 122.23) rotate(-34.5)"/><rect class="cls-11" x="195.6" y="250.8" width="4.96" height="4.25" rx="0.93" transform="translate(-132.07 124.46) rotate(-34.5)"/><rect class="cls-11" x="200.57" y="247.38" width="4.96" height="4.25" rx="0.93" transform="translate(-129.26 126.67) rotate(-34.5)"/><rect class="cls-11" x="188.58" y="261.92" width="4.96" height="4.25" rx="0.93" transform="translate(-139.61 122.44) rotate(-34.5)"/><rect class="cls-11" x="193.56" y="258.5" width="4.96" height="4.25" rx="0.93" transform="translate(-136.8 124.66) rotate(-34.5)"/><rect class="cls-11" x="198.54" y="255.08" width="4.96" height="4.25" rx="0.93" transform="translate(-133.98 126.87) rotate(-34.5)"/><rect class="cls-11" x="203.52" y="251.66" width="4.97" height="4.25" rx="0.93" transform="translate(-131.17 129.08) rotate(-34.5)"/><rect class="cls-11" x="191.53" y="266.2" width="4.96" height="4.25" rx="0.93" transform="matrix(0.82, -0.57, 0.57, 0.82, -141.51, 124.85)"/><rect class="cls-11" x="196.5" y="262.78" width="4.97" height="4.25" rx="0.93" transform="translate(-138.7 127.08) rotate(-34.5)"/><rect class="cls-11" x="201.48" y="259.36" width="4.96" height="4.25" rx="0.93" transform="translate(-135.89 129.29) rotate(-34.5)"/><rect class="cls-11" x="206.46" y="255.94" width="4.96" height="4.25" rx="0.93" transform="translate(-133.08 131.51) rotate(-34.5)"/><rect class="cls-11" x="194.47" y="270.48" width="4.96" height="4.25" rx="0.93" transform="matrix(0.82, -0.57, 0.57, 0.82, -143.42, 127.27)"/><rect class="cls-11" x="199.45" y="267.06" width="4.96" height="4.25" rx="0.93" transform="translate(-140.61 129.49) rotate(-34.5)"/><rect class="cls-11" x="204.42" y="263.64" width="4.96" height="4.25" rx="0.93" transform="translate(-137.8 131.71) rotate(-34.5)"/><rect class="cls-11" x="197.41" y="274.77" width="4.96" height="4.25" rx="0.93" transform="translate(-145.33 129.69) rotate(-34.5)"/><rect class="cls-11" x="202.39" y="271.34" width="4.97" height="4.25" rx="0.93" transform="translate(-142.52 131.91) rotate(-34.5)"/><rect class="cls-11" x="207.37" y="267.92" width="4.96" height="4.25" rx="0.93" transform="translate(-139.7 134.13) rotate(-34.5)"/><rect class="cls-11" x="210.87" y="259.76" width="4.96" height="9.44" rx="0.93" transform="translate(-135.94 135.14) rotate(-34.5)"/><path class="cls-29" d="M325.37,219.87l55.87-26.81-20.32-18.73Zm43-28.31L350.71,200l11.23-14.37Z" transform="translate(-23.66 -32.21)"/><line class="cls-37" x1="335.25" y1="144.71" x2="338.1" y2="147.34"/><line class="cls-37" x1="333.03" y1="147.55" x2="334.7" y2="149.09"/><line class="cls-37" x1="330.8" y1="150.4" x2="332.48" y2="151.94"/><line class="cls-37" x1="328.58" y1="153.25" x2="330.25" y2="154.79"/><line class="cls-37" x1="326.36" y1="156.09" x2="329.21" y2="158.72"/><line class="cls-37" x1="324.14" y1="158.94" x2="325.81" y2="160.48"/><line class="cls-37" x1="321.91" y1="161.79" x2="323.59" y2="163.33"/><line class="cls-37" x1="319.69" y1="164.63" x2="321.36" y2="166.17"/><line class="cls-37" x1="317.47" y1="167.48" x2="320.32" y2="170.11"/><line class="cls-37" x1="315.25" y1="170.33" x2="316.92" y2="171.87"/><line class="cls-37" x1="313.02" y1="173.17" x2="314.69" y2="174.71"/><line class="cls-37" x1="310.8" y1="176.02" x2="312.47" y2="177.56"/><line class="cls-37" x1="308.58" y1="178.86" x2="311.43" y2="181.49"/><path class="cls-22" d="M396.13,415.22a32.68,32.68,0,0,1-9.2-27.33c1.42-.21,2.66.9,3.64,1.95a38.82,38.82,0,0,1,8,11.71,19.25,19.25,0,0,1,.55,13.9" transform="translate(-23.66 -32.21)"/><path class="cls-22" d="M396.8,415.32a28.25,28.25,0,0,0-21.19-10.13,22.15,22.15,0,0,0,9,9.23,15.42,15.42,0,0,0,12.66.89" transform="translate(-23.66 -32.21)"/><path class="cls-22" d="M414.15,416.94a48.69,48.69,0,0,1,.4-18.29,30.52,30.52,0,0,1,8.92-15.78,1.93,1.93,0,0,1,1.48-.68,42.24,42.24,0,0,1-.43,21.07c-1.38,4.88-3.83,9.71-8,12.55" transform="translate(-23.66 -32.21)"/><path class="cls-22" d="M435.54,411.46A20.16,20.16,0,0,0,444,432.69a12.77,12.77,0,0,0,1.89-12.87,17.1,17.1,0,0,0-9.59-9.24" transform="translate(-23.66 -32.21)"/><path class="cls-22" d="M406.45,392.57c-7-4.26-13.45-9.59-17.92-16.43s-6.8-15.31-5.2-23.33a46.41,46.41,0,0,1,22.92,26.08c1.47,4.24,2.25,9.12.14,13.09" transform="translate(-23.66 -32.21)"/><path class="cls-28" d="M417.75,415.2c3-3.47,6.6-7.22,11.19-7.28,3.38,0,6.52,2.06,8.54,4.78a28.88,28.88,0,0,1,4,9.27" transform="translate(-23.66 -32.21)"/><path class="cls-28" d="M405.66,415.05c2.68-8.14,2-17.1-.43-25.32s-6.45-15.87-10.46-23.45" transform="translate(-23.66 -32.21)"/><path class="cls-8" d="M417.63,463.07h-18.8a16.91,16.91,0,0,1-16.91-16.91l8-31.91h35.44l9.22,31.91A16.91,16.91,0,0,1,417.63,463.07Z" transform="translate(-23.66 -32.21)"/><path class="cls-11" d="M394.94,425.82a1,1,0,0,0,0-2,1,1,0,0,0,0,2Z" transform="translate(-23.66 -32.21)"/><path class="cls-11" d="M408.16,435.94a1,1,0,0,0,0-2,1,1,0,0,0,0,2Z" transform="translate(-23.66 -32.21)"/><path class="cls-11" d="M391.69,445.11a1,1,0,0,0,0-2,1,1,0,0,0,0,2Z" transform="translate(-23.66 -32.21)"/><path class="cls-11" d="M422.43,425.82a1,1,0,0,0,0-2,1,1,0,0,0,0,2Z" transform="translate(-23.66 -32.21)"/><path class="cls-11" d="M426,444.38a1,1,0,0,0,0-2,1,1,0,0,0,0,2Z" transform="translate(-23.66 -32.21)"/><path class="cls-11" d="M409.05,458.13a1,1,0,0,0,0-2,1,1,0,0,0,0,2Z" transform="translate(-23.66 -32.21)"/><line class="cls-38" x1="5.03" y1="431.15" x2="447.66" y2="431.15"/></g></g></g></svg>