<svg width="61" height="61" viewBox="0 0 61 61" fill="none" xmlns="http://www.w3.org/2000/svg">
<path d="M53.6941 12.9338L31.1941 5.43384C30.6168 5.24113 29.9926 5.24113 29.4153 5.43384L6.9719 12.915L6.96 12.9189L6.91525 12.9338C6.87451 12.9474 6.83531 12.9638 6.79555 12.9791C6.7484 12.9972 6.70168 13.016 6.65581 13.0365C6.59842 13.0622 6.54166 13.0889 6.48656 13.1181C6.45886 13.1328 6.43223 13.1491 6.40508 13.1647C6.35843 13.1915 6.31244 13.219 6.26769 13.2482C6.24205 13.265 6.21694 13.2823 6.19184 13.2999C6.14575 13.3322 6.10083 13.3658 6.05708 13.4007C6.03596 13.4175 6.01468 13.434 5.99405 13.4514C5.94178 13.4954 5.89133 13.5413 5.8427 13.5889C5.83229 13.5991 5.82116 13.6085 5.81089 13.6188C5.75269 13.6774 5.69727 13.7384 5.6446 13.8018C5.62976 13.8196 5.61622 13.8384 5.60183 13.8565C5.56547 13.9024 5.53016 13.949 5.49675 13.9971C5.47832 14.0235 5.46081 14.0504 5.44331 14.0775C5.41596 14.1199 5.38981 14.1629 5.36483 14.2067C5.34781 14.2364 5.33073 14.2659 5.31476 14.2964C5.28996 14.3436 5.2673 14.3921 5.24515 14.4409C5.23291 14.4678 5.2194 14.494 5.20802 14.5214C5.17792 14.5936 5.1512 14.6675 5.12711 14.7424C5.11729 14.7731 5.10942 14.8045 5.10062 14.8356C5.08626 14.8863 5.07275 14.9373 5.06119 14.989C5.05387 15.0219 5.04735 15.0551 5.04117 15.0885C5.03098 15.1435 5.02274 15.199 5.01576 15.2549C5.01219 15.284 5.00798 15.3129 5.00529 15.3423C4.99736 15.4281 4.99219 15.5145 4.99219 15.6019V34.3519C4.99219 35.0978 5.2885 35.8132 5.81595 36.3407C6.3434 36.8681 7.05877 37.1644 7.80469 37.1644C8.55061 37.1644 9.26598 36.8681 9.79343 36.3407C10.3209 35.8132 10.6172 35.0978 10.6172 34.3519V19.504L16.1753 21.3567C14.4589 24.643 13.9437 28.4255 14.7188 32.0512C15.4939 35.6769 17.5106 38.9181 20.4207 41.2154C16.4366 43.0692 13.0541 46.006 10.6594 49.6904C10.2522 50.3152 10.1098 51.0762 10.2635 51.806C10.4173 52.5359 10.8546 53.1747 11.4794 53.5821C12.1041 53.9895 12.8651 54.132 13.5949 53.9784C14.3247 53.8248 14.9637 53.3876 15.3712 52.7629C16.9894 50.2766 19.2028 48.2336 21.8106 46.8194C24.4184 45.4051 27.338 44.6644 30.3046 44.6644C33.2712 44.6644 36.1909 45.4051 38.7987 46.8194C41.4065 48.2336 43.6199 50.2766 45.2381 52.7629C45.6455 53.3878 46.2845 53.8251 47.0144 53.9788C47.7443 54.1326 48.5054 53.99 49.1302 53.5826C49.755 53.1751 50.1924 52.5362 50.3461 51.8062C50.4998 51.0763 50.3573 50.3152 49.9498 49.6904C47.5552 46.006 44.1727 43.0692 40.1886 41.2154C43.0987 38.9181 45.1154 35.6769 45.8905 32.0512C46.6656 28.4256 46.1505 24.643 44.4341 21.3567L53.6941 18.27C54.2541 18.0833 54.7412 17.7252 55.0863 17.2464C55.4315 16.7675 55.6172 16.1922 55.6172 15.6019C55.6172 15.0116 55.4315 14.4363 55.0863 13.9575C54.7412 13.4786 54.2541 13.1205 53.6941 12.9338ZM30.3047 11.0666L43.9108 15.6019L39.0575 17.2197L39.0498 17.2222L30.3047 20.1372L21.5594 17.2222L21.5527 17.2199L16.6986 15.6019L30.3047 11.0666ZM40.6172 28.7269C40.6175 30.3287 40.2447 31.9085 39.5283 33.3411C38.812 34.7737 37.7717 36.0198 36.4901 36.9805C35.2084 37.9412 33.7206 38.5902 32.1446 38.876C30.5685 39.1618 28.9475 39.0765 27.4102 38.6269C25.8728 38.1773 24.4613 37.3758 23.2876 36.2859C22.1138 35.196 21.2101 33.8476 20.648 32.3477C20.0859 30.8478 19.8809 29.2376 20.0493 27.6448C20.2177 26.0519 20.7549 24.5201 21.6181 23.1709L29.4153 25.77C29.9926 25.9626 30.6168 25.9626 31.1941 25.77L38.9912 23.1709C40.0541 24.829 40.6184 26.7574 40.6172 28.7269Z" fill="white"/>
</svg>
