<svg width="61" height="61" viewBox="0 0 61 61" fill="none" xmlns="http://www.w3.org/2000/svg">
<g clip-path="url(#clip0_621_13)">
<path d="M10.3046 31.8041C10.0027 30.5639 8.92288 26.7254 8.53785 26.2337C8.27457 25.8978 7.96284 25.6391 7.38475 25.8857C6.88921 26.0972 6.96959 26.6692 7.06322 27.1422C7.16646 27.6628 7.7803 30.1198 8.13794 31.3971C8.00224 31.2439 7.82193 31.1369 7.62234 31.0914C7.42274 31.0458 7.21389 31.0639 7.02512 31.1431C6.6321 31.3226 6.48077 31.6577 6.5245 31.8998L6.60887 32.363C6.46778 32.2859 6.30941 32.2458 6.14861 32.2466C5.98781 32.2473 5.82984 32.2889 5.68948 32.3673C5.34981 32.5488 5.00778 33.0358 5.17507 33.3869L5.39934 33.8576L5.3293 33.8001C4.89818 33.4453 4.14989 33.6638 4.02759 34.1365C3.93415 34.4994 4.09183 34.9278 4.29378 35.2596C4.31791 35.299 4.34349 35.3413 4.37071 35.3854C4.39575 35.463 4.41009 35.5069 4.41009 35.5069C4.68389 36.355 5.21717 37.6511 6.01608 38.5747C6.38678 39.0027 6.81446 39.4275 7.15122 39.8869C7.58543 40.4801 7.59849 41.1581 7.90732 41.8963C9.46309 41.3642 10.9793 40.7227 12.4444 39.9766L12.3769 39.6647C12.2488 39.074 12.1078 38.3063 12.1915 37.8059C12.3412 37.2418 12.5298 36.6888 12.7558 36.1507C12.9405 35.7137 13.0213 35.2398 12.9917 34.7663C12.9325 34.2283 12.7932 33.4588 12.3929 32.8974C12.3136 32.7881 12.2146 32.6946 12.1009 32.6217C12.088 32.6123 12.0743 32.604 12.0599 32.5971C11.9554 32.5339 11.8435 32.4838 11.7268 32.4477C11.6808 32.4331 11.6333 32.42 11.5842 32.4084C11.5595 32.4018 11.535 32.3969 11.5103 32.392C11.4871 32.3857 11.4635 32.3808 11.4398 32.3773C11.4035 32.369 11.3672 32.3641 11.3309 32.3592L11.2603 32.3494C11.2554 32.3494 11.2489 32.3478 11.2422 32.3478C10.9676 32.3191 10.6912 32.3119 10.4155 32.3263L10.3705 32.0968C10.3585 32.032 10.3356 31.9319 10.3046 31.8041Z" fill="white"/>
<path d="M38.3506 57.37C38.2468 56.6934 38.1462 55.9861 38.055 55.2374H38.0129C36.185 55.2374 29.6258 55.3797 28.1742 55.3797L27.9659 55.3726C27.8436 56.3501 27.7059 57.2573 27.5667 58.1181C27.49 58.4861 27.394 58.8958 27.2724 59.3215L27.0547 60.0745H38.9562C38.8419 59.6316 38.7465 59.2609 38.7465 59.2609C38.6313 58.8577 38.5416 58.4703 38.468 58.1177C38.4288 57.8725 38.3896 57.6233 38.3506 57.37Z" fill="white"/>
<path d="M29.6036 55.3644C28.972 55.3737 28.4683 55.3795 28.1742 55.3795L27.9642 55.3842C28.2655 52.985 28.4138 50.569 28.4084 48.151C28.4084 44.1981 28.178 40.3157 28.0787 38.6226C27.961 36.5891 27.7744 34.7577 27.7109 32.8801L28.1283 32.9743C29.6841 33.3852 31.2822 33.6148 32.8907 33.6585C34.4095 33.6623 36.5703 33.4226 38.0538 32.8322L38.0783 32.8239C38.125 34.7548 38.07 36.6887 37.9599 38.6226C37.8606 40.3157 37.6302 44.1981 37.6302 48.151C37.6251 50.5193 37.767 52.8856 38.0549 55.2363L38.0136 55.2372C36.5553 55.2372 32.0893 55.3278 29.6036 55.3644Z" fill="#79C6E0"/>
<path d="M41.501 30.8633C43.9535 31.809 45.9433 29.6113 45.9284 27.7655C45.9216 26.7139 45.7426 25.6706 45.3986 24.6769C44.9622 23.3185 44.1168 20.5589 44.0558 15.6284C44.1772 14.2405 44.0511 12.2353 43.9961 11.4651C43.806 8.79399 42.6117 5.81098 40.8934 4.15273C39.8445 3.08551 38.5799 2.25458 37.184 1.71551C35.9894 1.25518 34.8786 1.03381 32.7823 1.03381C29.3455 1.03381 26.2864 2.80438 24.9288 4.10392C22.6769 6.25988 21.2484 10.198 21.4285 15.6284C21.4285 19.5858 21.1277 22.4402 20.7053 24.0621C20.3862 25.4026 20.2042 26.772 20.1622 28.1492C20.1468 29.9946 22.0061 32.0184 24.7479 31.393L41.501 30.8633Z" fill="#957F6E"/>
<path d="M28.6921 28.5285C28.8159 28.4179 28.9171 28.2845 28.9902 28.1355C29.22 27.5655 29.1784 26.7917 29.18 26.1577C28.1108 25.6654 27.1718 24.9295 26.4384 24.0088C25.6444 23.0349 25.0652 21.9043 24.7385 20.691L24.4034 20.6393C24.0266 20.5764 23.6725 20.4168 23.3759 20.1761C23.0105 19.8654 22.7164 19.4796 22.5138 19.0449C22.0842 18.1848 21.8992 17.2231 21.9791 16.2649C21.9901 16.02 22.0526 15.7802 22.1623 15.5609C22.257 15.4021 22.3861 15.2664 22.5402 15.164C22.6942 15.0616 22.8692 14.9951 23.0523 14.9692C23.2936 14.9301 23.541 14.9625 23.764 15.0625C23.987 15.1624 24.1758 15.3256 24.3071 15.5317C25.7042 13.1154 30.7585 10.328 34.9691 9.42363C34.9691 9.42363 35.1275 9.39968 35.3865 9.3632C35.8777 9.29279 36.3787 9.34022 36.8481 9.5016C37.3174 9.66297 37.7416 9.93366 38.0857 10.2913C39.6498 11.93 40.6027 13.9321 41.1591 15.76C41.4688 15.4796 41.6945 15.2759 41.6945 15.2759C41.837 15.1523 42.0044 15.0608 42.1855 15.0079C42.3665 14.9549 42.5568 14.9417 42.7435 14.969C42.9267 14.9948 43.1018 15.0613 43.2559 15.1637C43.41 15.266 43.5392 15.4017 43.634 15.5606C43.7438 15.7798 43.8062 16.0197 43.8173 16.2646C43.8972 17.2227 43.7122 18.1844 43.2825 19.0446C43.0799 19.4792 42.7858 19.865 42.4205 20.1757C42.1238 20.4165 41.7697 20.5761 41.3928 20.6389L41.2168 20.6663C41.1326 20.9819 41.0378 21.247 40.9912 21.3889C40.6838 22.2235 38.9238 25.169 36.7339 26.1181C36.7364 26.7586 36.69 27.5557 36.9255 28.1355C37.0834 28.5256 37.8237 29.1044 38.6021 29.6306C38.6021 29.6306 39.9424 30.5616 39.7207 31.3883C39.4799 32.2859 38.0541 32.8323 38.0541 32.8323C36.5706 33.4223 34.4097 33.6624 32.891 33.6586C31.2824 33.6149 29.6843 33.3853 28.1285 32.9743C28.1285 32.9743 26.4061 32.4481 26.1927 31.6704C25.8499 30.4206 27.2344 29.5925 27.2344 29.5925C27.7543 29.2869 28.2426 28.9305 28.6921 28.5285Z" fill="white"/>
<path d="M42.002 15.5836C42.0906 15.5114 42.1927 15.4577 42.3023 15.4254C42.412 15.3932 42.5269 15.3831 42.6405 15.3958C42.7541 15.4085 42.864 15.4437 42.9638 15.4993C43.0636 15.555 43.1513 15.6299 43.2219 15.7198C43.3772 15.9386 43.3861 16.2507 43.396 16.5088C43.4104 16.8234 43.3926 17.1386 43.3429 17.4496C43.1498 18.597 42.5532 19.9966 41.276 20.219C41.1652 20.2505 41.0712 20.3244 41.0143 20.4246C40.9574 20.5248 40.9422 20.6433 40.9719 20.7546C41.0048 20.8646 41.0788 20.9576 41.1786 21.0143C41.2784 21.071 41.3962 21.087 41.5075 21.0589C43.2676 20.7523 44.109 18.7493 44.2503 17.1605C44.3182 16.3968 44.2964 15.4458 43.6515 14.9189C43.3289 14.6585 42.9245 14.5205 42.51 14.5295C42.0955 14.5384 41.6974 14.6936 41.3863 14.9677C41.3055 15.0498 41.2603 15.1604 41.2603 15.2756C41.2603 15.3908 41.3055 15.5014 41.3863 15.5836C41.4691 15.6631 41.5795 15.7075 41.6942 15.7075C41.809 15.7075 41.9194 15.6631 42.0022 15.5836H42.002Z" fill="#211715"/>
<path d="M40.9432 19.663C40.9219 20.0331 40.8535 20.399 40.7395 20.7517C40.6981 20.8911 40.6526 21.0292 40.6063 21.1669C40.5911 21.2122 40.5067 21.4236 40.5624 21.2988C40.3929 21.6696 40.1976 22.0281 39.9781 22.3717C39.3643 23.3881 38.5819 24.2925 37.6643 25.0461C37.1615 25.4615 36.5727 25.7602 35.9405 25.9206C35.3947 26.0466 35.6257 26.8865 36.1721 26.7604C37.4832 26.4579 38.583 25.5191 39.4503 24.5309C40.1925 23.7153 40.8111 22.7953 41.2864 21.8001C41.5962 21.1278 41.7748 20.4024 41.8126 19.663C41.8318 19.1024 40.9607 19.1031 40.9416 19.663H40.9432Z" fill="#211715"/>
<path d="M24.4099 14.9677C24.0987 14.6936 23.7007 14.5384 23.2861 14.5295C22.8715 14.5205 22.4672 14.6585 22.1445 14.9189C21.4996 15.4451 21.4777 16.3966 21.5457 17.1605C21.6871 18.7497 22.5279 20.7532 24.2883 21.059C24.3996 21.0864 24.5171 21.0701 24.6168 21.0135C24.7165 20.9569 24.7907 20.8643 24.8241 20.7547C24.8538 20.6433 24.8385 20.5248 24.7816 20.4246C24.7247 20.3244 24.6307 20.2506 24.5198 20.219C23.2434 19.9968 22.6453 18.5971 22.4531 17.4496C22.4035 17.1386 22.3857 16.8234 22.4 16.5088C22.3838 16.2372 22.443 15.9665 22.5711 15.7266C22.641 15.6354 22.7284 15.5593 22.8282 15.5026C22.9281 15.4459 23.0383 15.4098 23.1523 15.3965C23.2664 15.3831 23.3819 15.3928 23.4922 15.425C23.6024 15.4571 23.705 15.511 23.794 15.5836C23.8771 15.6625 23.9874 15.7065 24.102 15.7065C24.2166 15.7065 24.3268 15.6625 24.4099 15.5836C24.4906 15.5014 24.5359 15.3908 24.5359 15.2757C24.5359 15.1605 24.4906 15.0499 24.4099 14.9677Z" fill="#211715"/>
<path d="M24.0371 19.548C24.5167 22.3125 26.0189 25.0221 28.5826 26.3523C29.2773 26.7131 30.0341 26.9389 30.813 27.0178C30.9282 27.0171 31.0386 26.971 31.1201 26.8895C31.2016 26.808 31.2477 26.6976 31.2484 26.5824C31.2459 26.4676 31.1993 26.3583 31.1181 26.2772C31.037 26.1961 30.9277 26.1494 30.813 26.1469C28.2025 25.8747 26.1679 23.5268 25.3486 21.1752C25.1409 20.5693 24.9832 19.9474 24.8769 19.3157C24.8454 19.2049 24.7715 19.1108 24.6713 19.0539C24.571 18.997 24.4524 18.9818 24.3411 19.0116C24.2311 19.0445 24.1382 19.1186 24.0815 19.2184C24.0249 19.3182 24.0089 19.436 24.037 19.5473L24.0371 19.548Z" fill="#211715"/>
<path d="M24.6309 30.9731C23.4675 31.2293 22.2438 30.9698 21.4068 30.0924C21.0633 29.7353 20.8149 29.2979 20.6842 28.82C20.5507 28.3236 20.5977 27.7747 20.642 27.2242C20.6987 26.5206 20.791 25.8202 20.9185 25.1259C21.0128 24.6121 21.1522 24.1098 21.2585 23.5989C21.4793 22.4749 21.6281 21.338 21.704 20.1951C21.8369 18.6072 21.8879 17.0134 21.8568 15.4203C21.8051 13.9038 21.9073 12.3859 22.162 10.8901C22.5635 8.647 23.3889 6.34551 24.9626 4.68635C25.7491 3.89095 26.6665 3.23668 27.6747 2.75211C28.9687 2.08347 30.3767 1.66353 31.8255 1.51409C32.6283 1.44877 33.4351 1.44877 34.2379 1.51409C34.8328 1.55162 35.4231 1.64351 36.0014 1.78862C37.2694 2.11657 38.4575 2.69903 39.4933 3.50059C40.4571 4.22856 41.2739 5.13303 41.9001 6.16588C42.6377 7.43261 43.1468 8.81918 43.4043 10.2623C43.6287 11.478 43.6565 12.7501 43.6681 13.9839C43.675 14.7085 43.6104 15.4306 43.628 16.1539C43.6476 16.9615 43.6899 17.7688 43.7597 18.5735C43.92 20.5995 44.3017 22.6019 44.8979 24.5448C45.0976 25.1382 45.2573 25.7444 45.3757 26.3592C45.4846 26.9896 45.5679 27.727 45.4292 28.3189C45.3082 28.8402 45.0535 29.3211 44.6901 29.714C44.3267 30.107 43.8672 30.3985 43.3569 30.5598C42.779 30.7105 42.1677 30.6696 41.615 30.4433C41.5037 30.4135 41.3851 30.4287 41.2849 30.4856C41.1847 30.5425 41.1109 30.6365 41.0794 30.7474C41.0512 30.8587 41.0671 30.9765 41.1237 31.0763C41.1804 31.1762 41.2735 31.2502 41.3835 31.283C42.0192 31.5227 42.7101 31.5761 43.3751 31.437C44.0401 31.298 44.6517 30.9722 45.1382 30.4979C45.5972 30.055 45.9474 29.5118 46.1614 28.9109C46.3581 28.2803 46.4138 27.6142 46.3247 26.9597C46.2218 25.7984 45.8442 24.7244 45.5274 23.6136C45.2545 22.649 45.04 21.6688 44.8849 20.6785C44.6581 19.1946 44.5297 17.6975 44.5004 16.1967C44.481 15.4346 44.5476 14.6751 44.5387 13.9124C44.5309 13.2445 44.5024 12.577 44.4599 11.9105C44.3846 10.467 44.0899 9.04328 43.5861 7.68841C43.0599 6.30759 42.3237 4.95943 41.267 3.91048C40.3337 2.95557 39.2389 2.17333 38.033 1.59992C36.8361 1.05457 35.5503 0.73059 34.2379 0.643685C32.5775 0.499462 30.9049 0.671429 29.3086 1.15047C27.963 1.56803 26.6944 2.20203 25.5527 3.02755C23.6457 4.42561 22.4588 6.49575 21.7811 8.73228C21.3666 10.1473 21.1148 11.6049 21.0304 13.0769C20.9749 13.9133 20.9744 14.7487 20.9912 15.5867C21.0094 16.4672 20.9791 17.3523 20.9455 18.2324C20.9055 19.5916 20.7927 20.9477 20.6077 22.2948C20.4418 23.416 20.1248 24.5036 19.9588 25.6247C19.8445 26.3562 19.7695 27.0933 19.7342 27.8328C19.6986 28.3962 19.7881 28.9606 19.9962 29.4854C20.2365 30.0585 20.607 30.5678 21.0783 30.9728C21.5497 31.3778 22.109 31.6674 22.7117 31.8187C23.4198 31.9825 24.1561 31.9805 24.8632 31.8128C25.4102 31.6924 25.1787 30.8526 24.6316 30.9731H24.6309Z" fill="#211715"/>
<path d="M34.8529 9.00294C33.1298 9.39223 31.4574 9.97898 29.8687 10.7516C28.3479 11.4527 26.9225 12.3446 25.627 13.4058C25.0422 13.8835 24.5251 14.4386 24.09 15.0557C23.7728 15.5195 24.5272 15.9557 24.8421 15.4952C25.5646 14.4384 26.7304 13.5729 27.8314 12.8696C29.2525 11.9667 30.7674 11.2208 32.3495 10.6449C33.2415 10.3152 34.155 10.0472 35.0837 9.84268C35.6313 9.72402 35.3996 8.88409 34.8522 9.00294H34.8529Z" fill="#211715"/>
<path d="M33.9509 8.07252C36.7425 9.11167 38.8063 11.3204 40.0329 13.9932C40.3248 14.6369 40.5714 15.3002 40.771 15.9782C40.9312 16.5138 41.7721 16.2856 41.6107 15.7467C40.7636 12.9141 39.1768 10.2771 36.7298 8.55444C35.9409 8.00626 35.0847 7.56199 34.1823 7.23259C34.0709 7.20291 33.9523 7.21818 33.8521 7.2751C33.7519 7.33201 33.678 7.42603 33.6464 7.53688C33.6182 7.64815 33.6341 7.76601 33.6908 7.86583C33.7475 7.96565 33.8406 8.0397 33.9506 8.07252H33.9509Z" fill="#211715"/>
<path d="M36.297 26.3427C36.2856 26.7264 36.2983 27.1104 36.3351 27.4925C36.3537 27.8549 36.4589 28.2075 36.6418 28.5208C37.0722 29.1421 37.7668 29.5892 38.3817 30.0065C38.4814 30.0638 38.5996 30.0794 38.7107 30.0498C38.8218 30.0202 38.9167 29.948 38.9747 29.8487C39.0327 29.7495 39.0491 29.6313 39.0204 29.52C38.9916 29.4087 38.92 29.3133 38.8212 29.2546C38.5283 29.0559 38.2373 28.8529 37.9633 28.6286C37.8433 28.5304 37.7259 28.429 37.6147 28.3201C37.5661 28.2729 37.5185 28.2247 37.473 28.175C37.45 28.1496 37.4276 28.1236 37.4057 28.0973C37.3612 28.0441 37.4538 28.1759 37.3937 28.081C37.3676 28.0392 37.3411 27.9991 37.3188 27.955C37.295 27.9081 37.3425 28.0256 37.3188 27.9483C37.3057 27.9073 37.291 27.867 37.2792 27.8257C37.2404 27.6895 37.213 27.5502 37.1976 27.4094C37.1685 27.0546 37.1589 26.6984 37.1689 26.3425C37.1725 25.782 36.3016 25.7813 36.2979 26.3425L36.297 26.3427Z" fill="#211715"/>
<path d="M28.745 26.3808C28.7546 26.7293 28.7446 27.0781 28.7151 27.4254C28.6982 27.5705 28.6689 27.7139 28.6276 27.854C28.6157 27.8943 28.6019 27.9337 28.5879 27.9734C28.5977 27.9458 28.6126 27.9313 28.591 27.9653C28.5756 27.9894 28.4915 28.1137 28.5525 28.0366C28.1553 28.5394 27.5526 28.8812 27.0138 29.216C26.915 29.2747 26.8434 29.3701 26.8146 29.4814C26.7859 29.5927 26.8023 29.7109 26.8603 29.8101C26.9183 29.9093 27.0132 29.9816 27.1243 30.0112C27.2354 30.0408 27.3536 30.0252 27.4533 29.9679C27.8051 29.7491 28.1524 29.5217 28.4818 29.27C28.7742 29.0638 29.0355 28.8166 29.2578 28.5361C29.4374 28.2514 29.5434 27.9264 29.5663 27.5906C29.611 27.1888 29.6278 26.7844 29.6165 26.3803C29.6129 25.82 28.7419 25.8187 28.7456 26.3803L28.745 26.3808Z" fill="#211715"/>
<path d="M21.2503 51.3325C20.4909 52.3018 19.4684 53.587 18.5267 54.2752C17.8821 54.7517 17.1372 55.0745 16.3488 55.2192C15.5604 55.3638 14.7494 55.3265 13.9776 55.1099C11.9171 54.5685 10.7437 52.7502 9.88634 50.8002C8.6525 47.9928 7.77392 44.9773 6.89844 42.1739C8.65467 41.7929 11.4539 40.5111 13.2107 39.5856C13.7626 40.9395 14.262 42.1765 14.7945 43.4482C16.2256 39.8906 16.3855 38.0489 17.675 34.6821C17.8846 34.1064 18.2079 33.5787 18.6256 33.1306C19.0342 32.6927 19.6675 32.5704 20.2068 32.3099C21.9597 31.4632 24.7745 30.7055 26.4814 29.7915L26.6502 29.7008C27.0506 29.2804 27.456 28.8861 27.8477 28.5466C27.462 32.164 27.8744 35.0873 28.0791 38.6223C28.1783 40.3154 28.4088 44.1978 28.4088 48.1506C28.4113 51.4908 28.1297 54.8252 27.5668 58.1176C27.4901 58.4856 27.3941 58.8953 27.2725 59.321L27.0548 60.168C24.2556 60.168 20.8353 60.168 20.8353 60.168C21.309 56.6633 21.8636 51.8981 21.8636 51.1427C21.8636 50.954 21.8594 50.7637 21.8512 50.5719C21.6807 50.7816 21.4772 51.0429 21.2503 51.3325Z" fill="white"/>
<path d="M45.3999 32.0629C43.5878 31.3404 41.0898 30.5801 39.6674 29.8184C39.6674 29.8184 39.6571 29.8129 39.638 29.8017C39.051 29.2286 38.4209 28.7013 37.7533 28.2244C38.1783 31.678 38.1582 35.1508 37.9606 38.6226C37.8613 40.3157 37.6309 44.1982 37.6309 48.151C37.6291 51.491 37.9096 54.8252 38.4695 58.1179C38.5432 58.47 38.6328 58.8573 38.748 59.2611L38.9658 60.0747H45.2076C44.7435 56.5987 44.1752 51.8899 44.1752 51.1442L51.5884 43.0516C50.3727 39.8752 50.1582 38.0529 48.9416 34.8764C48.7315 34.2992 48.4073 33.7702 47.9885 33.3209C47.5789 32.882 46.9441 32.7593 46.4035 32.4982C46.1078 32.3554 45.7681 32.2102 45.3999 32.0629Z" fill="white"/>
<path d="M28.0131 33.3942C29.3491 33.749 30.7164 33.9738 32.0957 34.0655C33.4157 34.1383 34.7397 34.0554 36.0404 33.8184C36.7676 33.702 37.4813 33.5124 38.1704 33.2525C38.2799 33.2188 38.3724 33.1446 38.4289 33.045C38.4855 32.9454 38.5018 32.8279 38.4745 32.7166C38.443 32.6058 38.3692 32.5117 38.269 32.4548C38.1688 32.3979 38.0502 32.3827 37.9389 32.4125C36.7433 32.8483 35.4898 33.1043 34.2192 33.1723C32.9602 33.2637 31.6948 33.2093 30.4483 33.0102C29.7066 32.897 28.9713 32.7448 28.2455 32.5544C27.7032 32.4107 27.4718 33.2506 28.014 33.3943L28.0131 33.3942Z" fill="#211715"/>
<path d="M26.2613 29.4158C25.2245 29.9664 24.1035 30.3476 23.0018 30.7439C22.4146 30.9551 21.8269 31.1652 21.2461 31.3934C20.715 31.6021 20.2044 31.8601 19.6735 32.0668C19.0701 32.3009 18.5396 32.5368 18.1195 33.0484C17.7032 33.5798 17.3789 34.1772 17.16 34.8157C16.7053 36.0289 16.3288 37.2664 15.9725 38.5111C15.5662 39.9304 15.1413 41.3406 14.6145 42.7207C14.5847 42.8321 14.6 42.9507 14.6569 43.051C14.7138 43.1512 14.8079 43.225 14.9188 43.2565C15.0302 43.2848 15.1482 43.2688 15.2482 43.212C15.3481 43.1553 15.4222 43.062 15.455 42.9519C16.3533 40.5979 16.9053 38.1386 17.74 35.7643C17.9256 35.144 18.1825 34.5473 18.5057 33.9862C18.658 33.7259 18.8535 33.4934 19.0839 33.2988C19.2975 33.1536 19.53 33.0385 19.7751 32.957C20.2875 32.7587 20.7787 32.5135 21.2884 32.3087C21.8508 32.0826 22.4208 31.8763 22.9909 31.6711C24.2429 31.2202 25.5232 30.7934 26.7015 30.1678C27.1968 29.9047 26.7572 29.1527 26.262 29.4157L26.2613 29.4158Z" fill="#211715"/>
<path d="M16.687 46.7164C15.6074 44.3264 14.6207 41.8981 13.6311 39.4698C13.6119 39.4064 13.5788 39.3481 13.5342 39.2991C13.4896 39.2502 13.4347 39.2118 13.3733 39.1869C13.312 39.1619 13.2458 39.151 13.1797 39.155C13.1136 39.1589 13.0493 39.1775 12.9913 39.2096C11.9712 39.7459 10.9302 40.2407 9.86839 40.6938C8.87488 41.1411 7.84232 41.496 6.78378 41.754C6.67297 41.7856 6.579 41.8594 6.52212 41.9596C6.46524 42.0598 6.44999 42.1783 6.47967 42.2897C7.03871 44.0811 7.57743 45.8796 8.19653 47.6516C8.51624 48.5663 8.85718 49.4739 9.23187 50.3675C9.52878 51.1104 9.87672 51.8319 10.2732 52.5268C11.0422 53.8238 12.1136 54.9558 13.5732 55.4443C14.3662 55.7067 15.2068 55.7938 16.0368 55.6995C16.8668 55.6052 17.6664 55.3318 18.3803 54.8981C19.8542 53.9909 20.8908 52.4829 21.9458 51.1485C22.0242 51.0651 22.0678 50.955 22.0678 50.8406C22.0678 50.7261 22.0242 50.616 21.9458 50.5327C21.8637 50.4517 21.7531 50.4063 21.6378 50.4063C21.5226 50.4063 21.412 50.4517 21.3299 50.5327C20.431 51.6696 19.5601 52.9062 18.4173 53.8156C17.8375 54.2724 17.1617 54.5921 16.4408 54.7506C15.7198 54.9091 14.9723 54.9023 14.2544 54.7308C12.8949 54.4122 11.8919 53.4708 11.1639 52.3145C10.2941 50.9326 9.72578 49.3536 9.17871 47.8235C8.49901 45.9217 7.92109 43.9858 7.31941 42.0585L7.0153 42.5941C8.12278 42.3204 9.20281 41.9456 10.2418 41.4746C11.3252 41.0149 12.3885 40.5107 13.4317 39.962L12.7919 39.7017C13.8098 42.1995 14.825 44.6978 15.9357 47.1563C15.9945 47.2554 16.09 47.3274 16.2015 47.3566C16.3131 47.3859 16.4316 47.37 16.5315 47.3125C16.6292 47.2524 16.7 47.1569 16.7291 47.046C16.7582 46.935 16.7434 46.8171 16.6878 46.7168L16.687 46.7164Z" fill="#211715"/>
<path d="M10.7921 31.9823C10.6613 31.3264 10.4655 30.6788 10.2841 30.0354C10.0259 29.1158 9.75786 28.1975 9.4494 27.2935C9.21188 26.5978 8.97654 25.7305 8.21954 25.4317C7.59699 25.186 6.77395 25.5298 6.6032 26.1972C6.48653 26.6534 6.61355 27.1407 6.71697 27.5891C7.00584 28.8411 7.32664 30.0867 7.66667 31.3253C7.81491 31.8651 8.65538 31.6359 8.50641 31.0938C8.21755 30.0414 7.94846 28.9823 7.69098 27.9211C7.6057 27.5699 7.50954 27.2168 7.45292 26.8595C7.42571 26.6893 7.39849 26.4531 7.47561 26.3458C7.53756 26.2918 7.61241 26.2548 7.69289 26.2382C7.77337 26.2216 7.85677 26.226 7.93503 26.2511C8.00777 26.2934 8.07206 26.3487 8.12465 26.4144C8.14587 26.4378 8.22353 26.5414 8.17055 26.4636C8.18296 26.4804 8.19447 26.4978 8.20503 26.5158C8.25238 26.6031 8.29575 26.6911 8.3364 26.782C8.3667 26.8501 8.30319 26.6967 8.34402 26.8002C8.35581 26.8303 8.36815 26.86 8.38031 26.8909C8.41061 26.968 8.43982 27.0457 8.46849 27.1233C8.52982 27.2904 8.58806 27.4588 8.64486 27.6276C8.92755 28.4675 9.17759 29.3187 9.41837 30.1715C9.60871 30.8459 9.81538 31.5249 9.95255 32.2129C9.96776 32.2681 9.99367 32.3197 10.0288 32.3648C10.064 32.41 10.1077 32.4477 10.1574 32.476C10.2072 32.5042 10.262 32.5224 10.3188 32.5295C10.3755 32.5365 10.4331 32.5323 10.4883 32.5171C10.5434 32.5019 10.595 32.476 10.6402 32.4409C10.6853 32.4057 10.7231 32.362 10.7513 32.3123C10.7796 32.2625 10.7978 32.2077 10.8048 32.1509C10.8119 32.0942 10.8077 32.0366 10.7925 31.9814L10.7921 31.9823Z" fill="#211715"/>
<path d="M3.9904 35.6234C4.30357 36.658 4.78412 37.6343 5.41296 38.5135C5.79055 39.0158 6.24599 39.4504 6.64245 39.9366C7.02912 40.4108 7.14724 40.9482 7.31562 41.5225C7.47294 42.0592 8.31359 41.831 8.15555 41.291C7.98771 40.7187 7.86432 40.1246 7.50324 39.6353C7.11585 39.1101 6.64354 38.6609 6.23147 38.157C5.57935 37.3595 5.14714 36.3648 4.83033 35.3919C4.65741 34.8614 3.81621 35.0883 3.9904 35.6234Z" fill="#211715"/>
<path d="M10.8871 35.2286C10.8357 34.9332 10.7661 34.6412 10.6788 34.3544C10.6116 34.0854 10.446 33.8514 10.2148 33.6985C9.96695 33.5653 9.69298 33.488 9.41209 33.4718C9.34351 33.462 9.27347 33.4383 9.2027 33.4341C9.13194 33.4299 9.15698 33.4159 9.19291 33.4401C9.27057 33.4907 9.14664 33.3675 9.13158 33.3276C9.10425 33.2622 9.10148 33.1892 9.12377 33.122C9.13012 33.0986 9.23137 32.8957 9.18547 32.9405C9.32046 32.8099 9.71366 32.8135 9.89547 32.7977C10.1495 32.7767 10.4035 32.7598 10.6576 32.7573C10.918 32.7464 11.1787 32.768 11.4338 32.8217C11.6473 32.8542 11.8455 32.9522 12.001 33.1022C12.1478 33.2854 12.2586 33.4948 12.3276 33.7191C12.4813 34.1299 12.5618 34.5645 12.5655 35.0031C12.5486 35.7232 12.1988 36.3358 11.9725 37.0148C11.9181 37.1794 11.8636 37.3445 11.8156 37.5114C11.8018 37.5597 11.7873 37.6081 11.7775 37.6566C11.7677 37.705 11.7642 37.7511 11.7579 37.7985C11.776 37.662 11.7455 37.887 11.7421 37.9266C11.6876 38.542 11.8297 39.1825 11.9584 39.781C12.0761 40.3286 12.9159 40.0969 12.7983 39.5494C12.6611 38.9791 12.6039 38.3925 12.6284 37.8064C12.6245 37.873 12.6012 37.9171 12.6319 37.8269C12.6529 37.7652 12.6682 37.6999 12.6863 37.6379C12.746 37.4415 12.811 37.2467 12.8776 37.0525C12.9349 36.8856 12.9935 36.7192 13.0565 36.5544C13.0705 36.5182 13.085 36.4819 13.0991 36.4456C13.1418 36.3367 13.0612 36.5229 13.1042 36.4327C13.1523 36.3318 13.2013 36.2316 13.2405 36.127C13.4071 35.675 13.4691 35.1911 13.4219 34.7117C13.3707 34.1376 13.2235 33.5762 12.9864 33.0509C12.8626 32.7758 12.6745 32.5345 12.4381 32.3472C12.2017 32.1599 11.9238 32.032 11.6278 31.9743C11.0293 31.8688 10.4182 31.8553 9.81564 31.9342C9.51772 31.9474 9.22313 32.0024 8.94051 32.0975C8.7975 32.1559 8.66906 32.245 8.5643 32.3585C8.45954 32.472 8.38102 32.6072 8.33429 32.7544C8.08988 33.3664 8.37439 34.1684 9.06789 34.2967C9.26022 34.333 9.64961 34.3088 9.78842 34.4663C9.85908 34.6001 9.90285 34.7464 9.91725 34.8969C9.97203 35.0825 10.0154 35.2713 10.0472 35.4621C10.0785 35.5731 10.1523 35.6673 10.2525 35.7242C10.3528 35.7812 10.4714 35.7963 10.5828 35.7664C10.6926 35.7332 10.7853 35.659 10.8419 35.5593C10.8985 35.4596 10.9146 35.3419 10.8869 35.2306L10.8871 35.2286Z" fill="#211715"/>
<path d="M6.02511 35.5592C6.04543 35.6318 6.02928 35.4658 6.02747 35.5661C6.02547 35.6701 6.05069 35.5099 6.02601 35.5828C6.0164 35.6113 5.96614 35.7222 6.0164 35.6296C5.99499 35.6688 5.97648 35.7091 5.95253 35.747C5.94073 35.7652 5.9264 35.7833 5.91515 35.8031C5.91787 35.7984 5.96541 35.7487 5.93202 35.7813C5.90499 35.8082 5.88176 35.8389 5.85418 35.8655C5.85164 35.8679 5.81626 35.9065 5.80755 35.9078C5.80864 35.9078 5.89555 35.8523 5.8237 35.8936C5.81154 35.9005 5.79902 35.9082 5.78741 35.9158C5.70685 35.9688 5.80701 35.9069 5.80719 35.91C5.80737 35.9131 5.66711 35.9477 5.73461 35.9316C5.79394 35.9176 5.72245 35.9316 5.70576 35.9332C5.68907 35.9348 5.66947 35.9348 5.65132 35.935C5.62919 35.935 5.48131 35.9223 5.58364 35.937C5.53417 35.9298 5.4852 35.9194 5.43703 35.906C5.41308 35.8995 5.38968 35.8913 5.36572 35.884C5.35919 35.8819 5.30131 35.8597 5.34903 35.8791C5.39222 35.8973 5.28843 35.8468 5.27155 35.8367C5.25141 35.8247 5.23236 35.8115 5.21276 35.7984C5.22637 35.8075 5.27827 35.8568 5.22311 35.8035C5.18918 35.7706 5.15506 35.7385 5.12313 35.7037C5.09119 35.6688 5.06597 35.6364 5.03694 35.603C4.99303 35.5527 5.07214 35.6536 5.03295 35.5979C5.02134 35.5817 5.00918 35.566 4.99666 35.5498C4.9346 35.4636 4.87618 35.3751 4.81938 35.2854C4.71341 35.1251 4.61766 34.9582 4.5327 34.7857C4.52725 34.7741 4.50348 34.7088 4.52762 34.7736C4.52018 34.7538 4.51274 34.7342 4.50584 34.7144C4.48969 34.6683 4.47518 34.6219 4.46302 34.5747C4.45613 34.548 4.45141 34.5203 4.44488 34.4941C4.4407 34.4784 4.4329 34.4089 4.44143 34.4892C4.4358 34.4361 4.43834 34.3831 4.43508 34.3301C4.43399 34.312 4.44397 34.2437 4.43072 34.329C4.43363 34.31 4.43762 34.2907 4.44215 34.272C4.4486 34.2529 4.45405 34.2334 4.45848 34.2136C4.46393 34.1688 4.44941 34.2554 4.44034 34.2544C4.44034 34.2544 4.46375 34.2127 4.46647 34.2067C4.49405 34.1481 4.47191 34.2401 4.44596 34.228C4.44705 34.228 4.51854 34.1532 4.52308 34.1479C4.57098 34.0997 4.50403 34.1717 4.50185 34.1634C4.51701 34.1516 4.53315 34.1411 4.55012 34.1322C4.56681 34.1222 4.58459 34.114 4.6011 34.1038C4.66697 34.0637 4.54358 34.1158 4.59167 34.1062C4.63013 34.0986 4.66769 34.0804 4.70616 34.0714C4.72576 34.0666 4.74608 34.0645 4.76531 34.0592C4.8163 34.0454 4.65989 34.0621 4.75515 34.0625C4.79561 34.0625 4.83626 34.0625 4.87672 34.0625C4.94749 34.0625 4.85041 34.0592 4.85168 34.0579C4.85604 34.0534 4.9043 34.0688 4.91138 34.0705C4.93098 34.0754 4.95021 34.0826 4.96999 34.0875C5.04347 34.1057 4.93007 34.0552 4.96491 34.0841C4.98741 34.1022 5.11006 34.1781 5.01934 34.1082C5.10245 34.1871 5.21267 34.2311 5.32726 34.2311C5.44185 34.2311 5.55206 34.1871 5.63518 34.1082C5.77925 33.9512 5.82642 33.6426 5.63518 33.4913C5.42642 33.3226 5.1719 33.2203 4.90446 33.1977C4.63701 33.175 4.36892 33.233 4.13478 33.3643C3.60949 33.6586 3.48175 34.2525 3.62491 34.8062C3.70451 35.081 3.82429 35.3425 3.98037 35.5823C4.12234 35.8213 4.28255 36.0489 4.45957 36.2633C4.64275 36.4771 4.88073 36.6371 5.14795 36.7259C5.41517 36.8147 5.70154 36.829 5.9763 36.7673C6.54949 36.6334 7.0287 35.9049 6.86539 35.3277C6.83469 35.2164 6.76101 35.1218 6.66056 35.0647C6.56011 35.0077 6.44112 34.9929 6.32976 35.0236C6.2184 35.0543 6.1238 35.128 6.06677 35.2284C6.00974 35.3289 5.99495 35.4479 6.02565 35.5592H6.02511Z" fill="#211715"/>
<path d="M7.05247 32.1721C6.55639 31.6277 5.67437 31.7528 5.17212 32.2125C5.03321 32.3332 4.91969 32.4802 4.83817 32.6451C4.75665 32.81 4.70875 32.9895 4.69727 33.1731C4.69636 33.5221 4.9141 33.8478 5.08502 34.139C5.3572 34.6035 5.6838 35.0499 5.99535 35.4906C6.12721 35.6981 6.28434 35.8885 6.46312 36.0573C6.73511 36.2713 7.07573 36.379 7.42135 36.3603C8.2923 36.3229 8.77822 35.4712 8.55812 34.669C8.41024 34.129 7.56977 34.3584 7.71838 34.9005C7.73241 34.9463 7.74243 34.9931 7.74832 35.0406C7.7505 35.0669 7.74977 35.0934 7.74959 35.1197C7.74959 35.1253 7.7387 35.2048 7.74832 35.152C7.74152 35.2348 7.70729 35.313 7.65106 35.3741C7.69153 35.3197 7.61296 35.4073 7.59935 35.422C7.56669 35.4572 7.60733 35.42 7.61477 35.4144C7.60044 35.4253 7.5852 35.4351 7.57014 35.4447C7.51169 35.4831 7.44137 35.4993 7.372 35.4902C7.28694 35.492 7.20236 35.4771 7.12305 35.4463C7.09692 35.4293 7.06852 35.416 7.03867 35.4069C7.03232 35.4055 6.97989 35.3726 7.04466 35.4144C7.10509 35.4534 7.03868 35.4075 7.02743 35.3962C6.97535 35.3418 6.92654 35.2874 6.87828 35.2298C6.84743 35.1936 6.88063 35.2342 6.88535 35.2402C6.8683 35.2182 6.85178 35.1959 6.83545 35.1738C6.80551 35.1333 6.7763 35.0923 6.74727 35.0513C6.52953 34.7428 6.31742 34.4308 6.10385 34.1205C5.95047 33.8964 5.80975 33.6639 5.68235 33.4241C5.65296 33.3696 5.62628 33.3123 5.59616 33.2577C5.56423 33.1998 5.57965 33.2475 5.56659 33.1889C5.57729 33.2363 5.56659 33.1748 5.56659 33.1766C5.57458 33.1348 5.58832 33.0944 5.60741 33.0565C5.65548 32.9618 5.72314 32.8784 5.80592 32.8119C5.86874 32.7595 5.94273 32.7223 6.0222 32.703C6.10079 32.6807 6.1832 32.6751 6.26407 32.6867C6.21799 32.6781 6.30762 32.6996 6.31669 32.7026C6.38764 32.7262 6.26679 32.683 6.33593 32.7079C6.40851 32.7342 6.3733 32.7186 6.43627 32.7877C6.47658 32.8287 6.52461 32.8613 6.57759 32.8836C6.63056 32.906 6.68743 32.9176 6.74492 32.9178C6.8024 32.918 6.85937 32.9069 6.91252 32.885C6.96568 32.8631 7.01397 32.8309 7.05462 32.7903C7.09527 32.7496 7.12747 32.7013 7.14936 32.6482C7.17125 32.595 7.1824 32.538 7.18216 32.4806C7.18193 32.4231 7.17032 32.3662 7.14799 32.3132C7.12567 32.2602 7.09308 32.2122 7.0521 32.1719L7.05247 32.1721Z" fill="#211715"/>
<path d="M9.03026 34.0103C9.04551 34.116 9.03184 34.2239 8.9907 34.3224C9.01411 34.268 8.92792 34.416 8.95441 34.3785C8.92699 34.4027 8.90128 34.4289 8.87748 34.4567C8.83162 34.4907 8.77915 34.5148 8.72343 34.5273C8.64885 34.551 8.69385 34.5372 8.71853 34.534C8.69686 34.5373 8.67493 34.5385 8.65303 34.5376C8.63048 34.5372 8.60835 34.5315 8.58843 34.5209C8.42379 34.4159 8.2918 34.267 8.20739 34.0909C8.03719 33.8114 7.86264 33.5355 7.68536 33.2602C7.39214 32.8031 7.07987 32.3452 6.95304 31.8306C6.95141 31.8237 6.9358 31.7473 6.94814 31.8068C6.96139 31.8701 6.96991 31.7567 6.94959 31.8113C6.92564 31.8754 6.9906 31.6929 6.95485 31.7772C6.98082 31.7071 7.02841 31.647 7.09076 31.6056C7.16668 31.546 7.25804 31.5095 7.35407 31.5001C7.4501 31.4908 7.54679 31.5091 7.63274 31.553C7.83114 31.6812 7.9975 31.8532 8.11902 32.0558C8.28106 32.2681 8.43855 32.4858 8.58008 32.7124C8.87621 33.1869 9.62994 32.7502 9.33219 32.2728C9.15283 31.9928 8.95934 31.7222 8.75246 31.4619C8.5678 31.1779 8.31717 30.9428 8.02195 30.7767C7.30269 30.4412 6.31634 30.7539 6.11094 31.5798C6.02475 31.9275 6.16084 32.2795 6.29946 32.5939C6.46155 32.9388 6.64959 33.2709 6.86195 33.5874C7.07624 33.9236 7.28454 34.2634 7.49829 34.5997C7.68324 34.9327 7.97211 35.1961 8.32079 35.3496C8.5141 35.4093 8.71949 35.4183 8.91731 35.376C9.11513 35.3336 9.29878 35.2412 9.45067 35.1075C9.60633 34.9726 9.72816 34.8031 9.80638 34.6125C9.8846 34.4219 9.91701 34.2157 9.90103 34.0103C9.89871 33.8955 9.85208 33.7861 9.77091 33.705C9.68974 33.6238 9.58032 33.5772 9.46555 33.5748C9.35039 33.5759 9.24026 33.6222 9.15883 33.7036C9.07739 33.785 9.03134 33.8952 9.03026 34.0103Z" fill="#211715"/>
<path d="M39.8245 30.3846C41.8939 31.3697 44.1388 31.9226 46.2157 32.8886C46.731 33.1285 47.3387 33.2486 47.7335 33.6841C48.1411 34.167 48.4516 34.7241 48.6482 35.3247C49.0954 36.5248 49.4647 37.7492 49.8178 38.98C50.2217 40.3918 50.6454 41.7941 51.1699 43.1667C51.2034 43.2763 51.2776 43.3689 51.3772 43.4254C51.4768 43.482 51.5943 43.4982 51.7056 43.4708C51.8165 43.4394 51.9105 43.3656 51.9674 43.2654C52.0243 43.1651 52.0395 43.0465 52.0097 42.9352C51.0687 40.4722 50.5037 37.8929 49.6066 35.416C49.3736 34.7726 49.1419 34.121 48.7416 33.5594C48.3889 32.986 47.8413 32.5588 47.1993 32.3562C46.6913 32.155 46.1981 31.9208 45.6917 31.7137C45.1355 31.4866 44.571 31.2802 44.006 31.0763C42.7506 30.6227 41.4703 30.207 40.2633 29.6323C40.1629 29.5772 40.0451 29.5626 39.9343 29.5917C39.8234 29.6207 39.728 29.6912 39.6676 29.7886C39.6103 29.8885 39.5945 30.007 39.6237 30.1185C39.653 30.2299 39.7248 30.3255 39.8238 30.3844L39.8245 30.3846Z" fill="#211715"/>
<path d="M18.7969 33.0085C19.1463 36.7054 19.6363 40.4018 20.2895 44.0573C20.4328 44.8585 20.5861 45.6586 20.764 46.4524C21.023 47.5108 21.2186 48.5837 21.3497 49.6655C21.4269 50.3432 21.4421 51.0265 21.395 51.7069C21.3419 52.3602 21.2711 53.0103 21.1998 53.6608C20.9656 55.7946 20.7041 57.9253 20.4152 60.0528C20.3884 60.1641 20.4049 60.2813 20.4614 60.3808C20.5179 60.4803 20.6101 60.5546 20.7193 60.5886C20.8307 60.6185 20.9493 60.6033 21.0496 60.5464C21.1498 60.4894 21.2236 60.3953 21.255 60.2844C21.5195 58.3254 21.7639 56.3638 21.988 54.3995C22.1332 53.1213 22.3431 51.8187 22.2847 50.529C22.1939 48.5213 21.6496 46.5916 21.2771 44.6281C20.9216 42.7561 20.6342 40.871 20.3737 38.9838C20.0991 36.9973 19.8565 35.005 19.6678 33.0084C19.6648 32.8938 19.6179 32.7848 19.5369 32.7038C19.4559 32.6228 19.3469 32.5759 19.2324 32.5729C19.1171 32.5737 19.0068 32.6198 18.9253 32.7013C18.8438 32.7828 18.7977 32.8931 18.7969 33.0084V33.0085Z" fill="#211715"/>
<path d="M27.3761 28.9044C27.1743 31.1045 27.2672 33.304 27.4254 35.5033C27.5544 37.2871 27.6767 39.0702 27.7675 40.856C27.9809 45.0569 28.1208 49.285 27.7361 53.4801C27.6496 54.4236 27.5396 55.3651 27.406 56.3045C27.2871 57.2828 27.1021 58.2519 26.8524 59.2052C26.6998 59.7455 27.5399 59.9761 27.6923 59.4367C27.9213 58.5728 28.0931 57.6947 28.2068 56.8082C28.3312 55.954 28.4426 55.0975 28.5323 54.2389C28.7438 52.2015 28.8479 50.1543 28.8442 48.106C28.8427 44.1803 28.6488 40.2511 28.3579 36.3367C28.1737 33.8594 28.0197 31.385 28.247 28.9046C28.2462 28.7893 28.2001 28.679 28.1186 28.5976C28.0371 28.5161 27.9268 28.4699 27.8116 28.4691C27.6968 28.4715 27.5875 28.5182 27.5063 28.5993C27.4251 28.6805 27.3785 28.7897 27.3761 28.9044Z" fill="#211715"/>
<path d="M26.6226 45.6356C26.1013 44.0978 25.6187 42.5473 25.1288 40.9992C24.8849 40.2288 24.64 39.4585 24.3876 38.691C24.2912 38.3978 24.1927 38.1044 24.123 37.8034C24.0915 37.6745 24.0729 37.5427 24.0675 37.4102C24.0655 37.3427 24.0631 37.4297 24.0608 37.4401C24.0656 37.4173 24.0717 37.3948 24.0789 37.3726C24.0869 37.3405 24.0991 37.3095 24.1152 37.2806C24.4584 36.6523 24.8962 36.0805 25.4131 35.5851C25.4933 35.5027 25.5382 35.3922 25.5382 35.2772C25.5382 35.1622 25.4933 35.0517 25.4131 34.9693C25.0953 34.671 24.7955 34.354 24.5155 34.02C24.3848 33.8636 24.2693 33.6957 24.1406 33.5382C24.0985 33.4865 24.1168 33.4421 24.1031 33.4999C24.1333 33.4385 24.1724 33.3818 24.2192 33.3317C24.5852 32.8143 24.9735 32.3122 25.373 31.8205C26.2746 30.6644 27.2898 29.6016 28.4032 28.6478C28.4841 28.5658 28.5295 28.4552 28.5295 28.3399C28.5295 28.2247 28.4841 28.1141 28.4032 28.032C28.3203 27.9527 28.21 27.9084 28.0953 27.9084C27.9806 27.9084 27.8703 27.9527 27.7874 28.032C26.8347 28.8427 25.9578 29.7385 25.1676 30.7082C24.7667 31.183 24.3786 31.6681 24.0033 32.1636C23.8478 32.3679 23.695 32.5742 23.5449 32.7825C23.3493 33.0547 23.1613 33.3395 23.2546 33.6928C23.3499 34.0572 23.6901 34.386 23.926 34.6672C24.1983 34.9898 24.4891 35.2962 24.7969 35.5851V34.9693C24.2931 35.4722 23.8491 36.0318 23.474 36.6368C23.323 36.8603 23.2281 37.1168 23.1973 37.3848C23.2039 37.7412 23.269 38.0941 23.3901 38.4293C23.8632 40.0079 24.395 41.5722 24.8942 43.1428C25.1836 44.0532 25.4764 44.9624 25.7833 45.8671C25.9624 46.3951 26.8039 46.1685 26.6232 45.6356H26.6226Z" fill="#211715"/>
<path d="M28.1759 55.815C30.855 55.8139 33.5348 55.7288 36.214 55.6905C36.8143 55.682 37.4147 55.6723 38.0151 55.6723C38.5754 55.6723 38.5763 54.8014 38.0151 54.8014C35.2711 54.8025 32.5265 54.8843 29.783 54.9259C29.2475 54.934 28.7124 54.944 28.1764 54.944C27.6161 54.944 27.6152 55.815 28.1764 55.815H28.1759Z" fill="#211715"/>
<path d="M45.6435 60.0741C45.3867 58.1498 45.1453 56.2235 44.9195 54.2953C44.7718 53.0252 44.5639 51.7342 44.6292 50.4517C44.7292 48.4799 45.2811 46.5796 45.6417 44.6477C45.9891 42.7873 46.2726 40.9148 46.5295 39.041C46.8044 37.0352 47.0517 35.025 47.2422 33.0094C47.2414 32.8942 47.1953 32.7839 47.1138 32.7024C47.0323 32.6209 46.922 32.5748 46.8067 32.574C46.692 32.5764 46.5826 32.623 46.5015 32.7042C46.4203 32.7853 46.3737 32.8947 46.3713 33.0094C46.0265 36.6504 45.5446 40.2901 44.8985 43.8898C44.5548 45.8041 44.0235 47.6895 43.8226 49.6268C43.742 50.3072 43.725 50.9937 43.772 51.6772C43.8265 52.336 43.9007 52.9936 43.9747 53.6506C44.2164 55.7948 44.4873 57.9361 44.7731 60.075C44.7767 60.1893 44.8238 60.298 44.9046 60.3789C44.9855 60.4598 45.0942 60.5068 45.2085 60.5105C45.4198 60.5105 45.6754 60.3098 45.644 60.075L45.6435 60.0741Z" fill="#211715"/>
<path d="M38.8755 29.4544C39.7155 30.2522 40.4803 31.1257 41.1601 32.0638C41.3354 32.3046 41.5077 32.5474 41.6797 32.7896L41.9735 33.2055C42.0192 33.284 42.0716 33.3585 42.1299 33.4281C42.1444 33.4424 42.1907 33.5531 42.1867 33.4604C42.1903 33.5455 42.0205 33.7014 41.9711 33.7651C41.8543 33.9157 41.7318 34.0621 41.6063 34.2054C41.3729 34.472 41.1258 34.7255 40.8679 34.9684C40.7878 35.0509 40.743 35.1614 40.743 35.2763C40.743 35.3913 40.7878 35.5018 40.8679 35.5843C41.26 35.9623 41.6272 36.3653 41.9672 36.7909C42.0768 36.9225 42.1622 37.0726 42.2195 37.234C42.2244 37.2521 42.2362 37.1757 42.2137 37.2594C42.2105 37.2717 42.2116 37.2828 42.2018 37.3394C42.1811 37.4576 42.158 37.5752 42.1326 37.6923C41.8786 38.859 41.4359 39.9876 41.0821 41.1268C40.9155 41.6633 41.7559 41.8928 41.9218 41.3583C42.1433 40.6456 42.3672 39.9334 42.6035 39.2252C42.7781 38.7213 42.9179 38.206 43.0217 37.6829C43.0855 37.4556 43.097 37.2168 43.0551 36.9845C42.9828 36.7551 42.8691 36.5409 42.7196 36.3525C42.3397 35.864 41.927 35.402 41.4843 34.9697V35.5852C41.7823 35.3056 42.0644 35.0095 42.3293 34.6984C42.5638 34.4219 42.8846 34.1053 43.0049 33.7549C43.1417 33.3577 42.9227 33.0443 42.7027 32.7328C42.4939 32.437 42.2854 32.1409 42.0742 31.847C41.311 30.7641 40.4463 29.7564 39.4918 28.8376C39.0852 28.4521 38.4681 29.067 38.876 29.4535L38.8755 29.4544Z" fill="#211715"/>
<path d="M39.1679 59.1448C38.9437 58.2908 38.7762 57.423 38.6664 56.547C38.5492 55.7347 38.4482 54.9202 38.3636 54.1034C38.1582 52.0656 38.0591 50.0186 38.0665 47.9705C38.0705 45.8029 38.1391 43.6359 38.2418 41.471C38.3249 39.7266 38.4492 37.9841 38.5007 36.2384C38.5958 33.6156 38.4979 30.9893 38.2077 28.3808C38.2044 28.2663 38.1574 28.1575 38.0765 28.0765C37.9955 27.9956 37.8867 27.9486 37.7722 27.9453C37.657 27.946 37.5466 27.9921 37.4651 28.0736C37.3836 28.1552 37.3375 28.2655 37.3368 28.3808C37.6004 30.7203 37.7048 33.0751 37.6492 35.4288C37.6156 37.2627 37.4903 39.0917 37.3977 40.923C37.1858 45.1257 37.0495 49.3547 37.4387 53.5509C37.5294 54.5287 37.6472 55.5035 37.7835 56.4759C37.8989 57.454 38.0808 58.4232 38.3278 59.3767C38.4797 59.9152 39.3203 59.6864 39.1677 59.1451L39.1679 59.1448Z" fill="#211715"/>
<path d="M35.0757 46.6716C34.8652 46.8704 34.6701 47.085 34.4922 47.3135C34.8064 47.6423 35.1407 47.9514 35.4931 48.2389L35.591 48.3115C36.1582 47.5062 36.9053 47.0232 37.7935 46.6681C39.1087 46.1367 40.5198 45.8834 41.9377 45.9242C43.3381 45.9705 44.8841 46.4103 45.9281 47.4064C46.7809 46.4277 48.3744 45.6682 49.6043 45.361C50.8242 45.0859 52.0818 45.019 53.324 45.1632C54.0714 45.2316 54.7993 45.4393 55.4703 45.7756L55.4984 45.7476C55.7162 45.541 56.1517 45.1059 56.5211 44.7143C55.1831 43.7025 54.4328 43.5516 52.8558 43.3981C51.6552 43.2812 50.2909 43.2418 49.118 43.5351C47.9451 43.8283 46.4386 44.3178 45.6044 45.2458C44.6654 44.5836 43.3514 44.2086 41.9392 44.162C40.5212 44.1211 39.1101 44.3744 37.7949 44.9059C37.1904 45.1329 36.6182 45.4379 36.0927 45.8131C35.7377 46.0798 35.3982 46.3664 35.0757 46.6716Z" fill="white"/>
<path d="M52.0676 50.8509C52.9748 50.0434 55.8386 47.3533 56.6072 46.5843C55.9763 45.9311 54.7708 45.2969 53.323 45.1621C52.0808 45.0179 50.8232 45.0848 49.6033 45.3599C48.3735 45.6671 46.7805 46.4266 45.9272 47.4053C44.8831 46.4092 43.3372 45.9694 41.9368 45.9231C40.5188 45.8823 39.1078 46.1356 37.7925 46.667C36.722 47.0947 35.8572 47.7084 35.2637 48.847C36.0842 49.5644 39.1263 51.9025 39.9801 52.5801L52.0676 50.8509Z" fill="#3F88C9"/>
<path d="M48.0797 49.1608C48.0301 49.1206 47.98 49.0811 47.9296 49.0423C47.2862 48.5453 46.8195 48.4674 46.1585 48.8369L45.8034 49.1453C45.5329 48.8585 45.3035 48.6206 45.2057 48.5357C45.0645 48.408 44.8928 48.319 44.7071 48.2773C44.5214 48.2356 44.3281 48.2426 44.1459 48.2976C43.7285 48.4531 43.5529 48.6816 43.5529 49.0316L43.5132 49.3291C43.2916 49.0945 43.092 48.8926 42.9398 48.7561C42.8108 48.6405 42.1826 48.331 41.7645 48.6451C41.3958 48.9222 41.3389 49.2928 41.5524 49.6185C41.5748 49.6563 41.5953 49.6952 41.6138 49.735L41.5201 49.6862C41.4016 49.6207 41.2705 49.5812 41.1355 49.5705C41.0005 49.5597 40.8648 49.5779 40.7374 49.6238C40.61 49.6697 40.4939 49.7422 40.3968 49.8366C40.2997 49.931 40.2238 50.045 40.1743 50.1711C40.1082 50.4725 40.1461 50.7875 40.2819 51.0647C40.5528 51.5883 41.7362 52.9017 42.3749 53.5767C43.8383 54.6109 46.1735 53.8907 48.0441 53.456C48.307 53.3911 48.5574 53.2833 48.7853 53.137C49.485 52.6515 49.8451 52.0547 50.4167 51.4232C50.6594 51.1891 50.8747 50.9282 51.0583 50.6454C51.2445 50.2825 51.398 49.8865 51.2942 49.4915C51.252 49.2846 51.1359 49.1001 50.9676 48.9726C50.6892 48.7891 50.3169 48.8766 50.0084 49.0027C49.5476 49.1912 49.119 49.4506 48.7383 49.7715C48.5345 49.5515 48.3144 49.3474 48.0797 49.1608Z" fill="white"/>
<path d="M48.5656 52.7609C48.1675 53.0345 47.6602 53.0993 47.2002 53.2101C46.6584 53.3408 46.1151 53.4689 45.5652 53.5611C44.6247 53.7189 43.5564 53.7937 42.709 53.2778C42.2289 52.9855 41.7909 53.7385 42.2693 54.0299C43.2855 54.6483 44.5179 54.6004 45.6505 54.4246C46.2383 54.3338 46.8183 54.1978 47.3962 54.0586C47.9405 53.9274 48.5338 53.8369 49.0051 53.513C49.1026 53.4527 49.1733 53.3572 49.2024 53.2463C49.2315 53.1354 49.2168 53.0175 49.1613 52.9171C49.1023 52.8182 49.0068 52.7464 48.8954 52.7171C48.784 52.6879 48.6655 52.7036 48.5656 52.7609Z" fill="#211715"/>
<path d="M49.387 49.8832C48.9655 49.3107 48.4383 48.8241 47.8338 48.4498C47.5583 48.2771 47.2417 48.1811 46.9166 48.1716C46.5713 48.1842 46.2347 48.2841 45.9384 48.4619C45.8387 48.5203 45.7662 48.6158 45.7369 48.7275C45.7076 48.8393 45.7239 48.9581 45.7822 49.0578C45.8405 49.1576 45.936 49.2301 46.0478 49.2594C46.1595 49.2886 46.2783 49.2724 46.3781 49.214C46.4282 49.1867 46.5221 49.1377 46.5443 49.128C46.5194 49.1389 46.5891 49.1099 46.5969 49.1079C46.6239 49.0983 46.6513 49.0898 46.6787 49.081C46.7373 49.0628 46.7973 49.0491 46.858 49.0402C46.772 49.0517 46.9072 49.0422 46.9358 49.0428C46.9471 49.0428 47.0521 49.05 46.9926 49.044C46.9404 49.0388 47.0204 49.05 47.03 49.052C47.082 49.0634 47.1331 49.0778 47.1833 49.0954C47.2073 49.1039 47.269 49.1317 47.2151 49.1068C47.2418 49.1193 47.2681 49.1322 47.294 49.1458C47.3564 49.1785 47.4169 49.2146 47.4755 49.2529C47.6946 49.3991 47.901 49.5636 48.0924 49.7446C48.2888 49.9225 48.4703 50.1162 48.6351 50.3236C48.6959 50.4206 48.7913 50.4908 48.9021 50.5199C49.0128 50.5489 49.1304 50.5346 49.231 50.4798C49.3301 50.421 49.4021 50.3255 49.4313 50.214C49.4606 50.1026 49.4447 49.984 49.3872 49.8841L49.387 49.8832Z" fill="#211715"/>
<path d="M47.4993 50.3098C47.0515 49.8885 46.6503 49.4106 46.2292 48.9624C46.0205 48.7401 45.8136 48.5146 45.5941 48.3027C45.4149 48.1204 45.1952 47.9831 44.9529 47.9019C44.7106 47.8206 44.4525 47.7978 44.1997 47.8353C43.907 47.8745 43.6377 48.0162 43.4396 48.2352C43.2414 48.4542 43.1273 48.7362 43.1173 49.0314C43.1048 49.592 43.9758 49.5919 43.9883 49.0314C43.9883 49.0018 43.9895 48.9722 43.9923 48.9428C43.9863 48.9885 43.9881 48.9862 43.9983 48.9356C44.0148 48.8872 44.0138 48.8846 43.9952 48.9279C44.0065 48.9043 44.0194 48.8815 44.0336 48.8595C43.991 48.9261 44.0832 48.8113 44.1029 48.796C44.0596 48.8296 44.1971 48.7461 44.2144 48.738C44.2979 48.6967 44.3903 48.6765 44.4834 48.6789C44.5766 48.6813 44.6678 48.7064 44.7491 48.7519C45.0158 48.8789 45.2256 49.1678 45.4239 49.3774C45.9093 49.8903 46.3674 50.4416 46.8826 50.9257C47.2904 51.3096 47.9076 50.6951 47.4984 50.3098H47.4993Z" fill="#211715"/>
<path d="M41.0369 52.5747C39.5504 51.3991 37.9622 50.3512 36.4431 49.2179C36.3444 49.1442 36.2459 49.0702 36.1476 48.996C36.1051 48.9637 36.0628 48.9315 36.0206 48.8991L35.9601 48.8528C35.9057 48.8105 36.038 48.9138 35.9482 48.8434C35.8211 48.7437 35.6941 48.6438 35.5727 48.5383L35.6408 49.066C35.9352 48.4878 36.3676 47.9911 36.8997 47.6199C37.5093 47.2301 38.1759 46.9375 38.8755 46.7525C40.3726 46.3141 42.0209 46.1817 43.5387 46.5992C44.313 46.7957 45.0277 47.1778 45.6212 47.7126C45.7035 47.793 45.814 47.838 45.9291 47.838C46.0442 47.838 46.1547 47.793 46.237 47.7126C47.1036 46.736 48.4144 46.1173 49.6613 45.7943C50.4896 45.5916 51.3418 45.5031 52.1941 45.5312C52.9919 45.5224 53.7865 45.6336 54.5513 45.8611C55.2075 46.0618 55.8068 46.4149 56.3005 46.8915V46.2757C54.9431 47.6302 53.4902 48.898 52.0689 50.1848C51.7624 50.4622 51.4552 50.7388 51.1473 51.0147C50.728 51.3883 51.3457 52.0025 51.7632 51.6306C53.2129 50.3387 54.6472 49.029 56.0659 47.7017C56.352 47.4344 56.6392 47.168 56.9165 46.8915C56.9965 46.809 57.0412 46.6985 57.0412 46.5836C57.0412 46.4687 56.9965 46.3582 56.9165 46.2757C55.7944 45.1353 54.1734 44.7537 52.6294 44.6755C50.9201 44.5591 49.2097 44.8853 47.6632 45.6227C46.8941 45.9783 46.2008 46.4788 45.6212 47.0967H46.237C45.0434 45.9772 43.3774 45.5072 41.7694 45.4829C40.8118 45.4709 39.8571 45.5887 38.9312 45.8331C38.119 46.0278 37.3402 46.3416 36.6201 46.7645C35.888 47.2203 35.2907 47.863 34.8896 48.6263C34.8423 48.7098 34.8234 48.8064 34.8357 48.9016C34.8479 48.9968 34.8907 49.0854 34.9576 49.1542C35.5876 49.7018 36.2846 50.181 36.9592 50.6714C37.8153 51.294 38.6773 51.9087 39.5336 52.5311C39.7218 52.6679 39.9093 52.8054 40.0961 52.9435C40.1663 52.9956 40.2364 53.048 40.3062 53.1009C40.3221 53.113 40.4296 53.195 40.3722 53.1509C40.3149 53.1068 40.4051 53.1767 40.4216 53.1898C40.5049 53.2682 40.6151 53.3118 40.7295 53.3118C40.8439 53.3118 40.9541 53.2682 41.0374 53.1898C41.1183 53.1077 41.1637 52.9971 41.1637 52.8818C41.1637 52.7666 41.1183 52.656 41.0374 52.5739L41.0369 52.5747Z" fill="#211715"/>
<path d="M35.7138 47.8617C35.825 47.9463 35.6956 47.8446 35.6758 47.8278C35.6298 47.7889 35.5851 47.7492 35.5388 47.7093C35.4394 47.6216 35.3411 47.5327 35.2438 47.4426C35.0855 47.308 34.9375 47.1618 34.8011 47.0051V47.6209C35.7515 46.4441 37.0279 45.5737 38.4705 45.1186C39.9888 44.5834 41.62 44.4521 43.2043 44.7375C43.9836 44.8789 44.7255 45.1794 45.3835 45.6203C45.4667 45.6686 45.5635 45.6881 45.6589 45.6758C45.7543 45.6635 45.8429 45.62 45.9111 45.5522C46.3966 45.0598 46.9869 44.6832 47.638 44.4505C48.3126 44.1789 49.0135 43.9778 49.7295 43.8504C50.5574 43.7301 51.3966 43.7066 52.2299 43.7804C52.9394 43.8082 53.6449 43.901 54.3374 44.0576C55.0542 44.2674 55.722 44.6179 56.3018 45.0888L56.2136 44.4049C55.8805 44.7566 55.5422 45.1037 55.1909 45.4383C54.7847 45.826 55.4012 46.4413 55.8068 46.0541C56.1573 45.7197 56.4963 45.3724 56.8294 45.0208C56.875 44.973 56.9094 44.9155 56.93 44.8527C56.9506 44.7899 56.9569 44.7233 56.9484 44.6578C56.94 44.5923 56.917 44.5294 56.8811 44.4739C56.8453 44.4184 56.7975 44.3716 56.7412 44.3369C56.1565 43.8728 55.4951 43.5147 54.7869 43.2787C54.0668 43.0876 53.3287 42.9729 52.5846 42.9365C51.6879 42.8465 50.784 42.8523 49.8885 42.9537C49.0836 43.0644 48.2943 43.268 47.5364 43.5605C46.7144 43.8706 45.8975 44.2808 45.2953 44.9364L45.8231 44.8684C44.4917 43.9446 42.7685 43.6583 41.1781 43.7298C39.4725 43.8062 37.6716 44.2819 36.2186 45.1975C35.4436 45.6804 34.7564 46.2915 34.1863 47.0047C34.1092 47.0887 34.0664 47.1986 34.0664 47.3126C34.0664 47.4267 34.1092 47.5366 34.1863 47.6206C34.5082 47.9939 34.8737 48.3272 35.275 48.6134C35.3749 48.671 35.4934 48.6869 35.605 48.6577C35.7165 48.6284 35.812 48.5564 35.8707 48.4572C35.9262 48.3568 35.941 48.239 35.9119 48.128C35.8828 48.0171 35.8121 47.9216 35.7145 47.8613L35.7138 47.8617Z" fill="#211715"/>
<path d="M41.7396 49.31C41.504 49.1806 41.2363 49.1217 40.9682 49.1403C40.7001 49.1589 40.443 49.2542 40.2276 49.4149C40.0543 49.5398 39.9156 49.7067 39.8247 49.9C39.7338 50.0933 39.6936 50.3066 39.7079 50.5197C39.7401 50.9573 39.908 51.3739 40.1882 51.7115C40.4627 52.0798 40.7587 52.4318 41.0606 52.7778C41.3865 53.1511 41.7197 53.5177 42.0604 53.8776C42.4461 54.286 43.0612 53.6693 42.6762 53.2618C42.3617 52.9287 42.0532 52.59 41.7508 52.2457C41.4513 51.9051 41.1256 51.5271 40.89 51.2029C40.7974 51.0865 40.7166 50.9611 40.6487 50.8287C40.6001 50.7127 40.576 50.5878 40.5778 50.462C40.5778 50.4499 40.5839 50.3129 40.5769 50.3713C40.5787 50.3566 40.6151 50.2162 40.5897 50.2889C40.5643 50.3617 40.6159 50.247 40.6248 50.2325C40.6792 50.1418 40.568 50.288 40.6465 50.2042C40.6831 50.1632 40.7229 50.1253 40.7656 50.0908C40.7093 50.134 40.8175 50.0627 40.8233 50.0594C40.8967 50.0203 40.9788 50 41.062 50.0003C41.1453 50.0007 41.2271 50.0216 41.3003 50.0614C41.4007 50.1168 41.5185 50.1315 41.6295 50.1024C41.7404 50.0733 41.8359 50.0027 41.8962 49.9052C41.9534 49.8052 41.9691 49.6868 41.9399 49.5753C41.9107 49.4639 41.8389 49.3684 41.7399 49.3095L41.7396 49.31Z" fill="#211715"/>
<path d="M45.508 50.8719C45.087 50.4158 44.6766 49.9498 44.2576 49.4915C44.0508 49.265 43.8426 49.0399 43.6287 48.8201C43.4692 48.6368 43.2891 48.4724 43.092 48.3302C42.4569 47.9272 41.5727 47.9915 41.1558 48.6692C40.6798 49.4429 41.3755 50.1438 41.8384 50.7101C42.3519 51.3506 42.8995 51.963 43.4788 52.5447C43.878 52.9386 44.4949 52.3232 44.0949 51.9289C43.6389 51.4794 43.2096 51.0069 42.8002 50.5149C42.5919 50.2645 42.3869 50.0112 42.1804 49.7593C42.0857 49.6467 42.0014 49.5257 41.9285 49.3979C41.9089 49.3656 41.8914 49.3322 41.8761 49.2977C41.8734 49.2893 41.8512 49.1945 41.8616 49.2398C41.8707 49.2788 41.8741 49.1661 41.8601 49.2286C41.8809 49.1392 41.9341 49.0608 42.0094 49.0085C42.0847 48.9561 42.1767 48.9336 42.2677 48.9453C42.3477 48.9506 42.2201 48.9353 42.2978 48.9488C42.3214 48.9528 42.345 48.9584 42.3682 48.9642C42.4273 48.9787 42.4852 48.9974 42.5417 49.0201C42.4774 48.994 42.5907 49.0458 42.6126 49.0584C42.6293 49.068 42.6473 49.0816 42.6649 49.0901C42.7344 49.1237 42.6093 49.0286 42.6435 49.0736C42.7896 49.2353 42.9446 49.3888 43.1078 49.5334C43.2945 49.7285 43.4777 49.927 43.6597 50.1266C44.0725 50.5784 44.4763 51.0376 44.8921 51.4874C44.974 51.568 45.0844 51.6129 45.1993 51.6125C45.3142 51.612 45.4242 51.5662 45.5055 51.4849C45.5867 51.4037 45.6326 51.2936 45.633 51.1788C45.6335 51.0639 45.5885 50.9535 45.508 50.8716V50.8719Z" fill="#211715"/>
<path d="M49.2618 49.9116C49.503 49.7412 49.7587 49.5923 50.026 49.4669C50.2001 49.3861 50.4724 49.2491 50.67 49.3096C50.8253 49.3564 50.8807 49.5712 50.8925 49.7133C50.8891 49.9848 50.8071 50.2495 50.6566 50.4754C50.5283 50.6692 50.3785 50.8478 50.21 51.0079C50.0286 51.2013 49.8586 51.4037 49.6905 51.6083C49.3692 52.0411 48.9913 52.4289 48.567 52.7614C48.4696 52.8219 48.3992 52.9174 48.3701 53.0282C48.341 53.1391 48.3556 53.2569 48.4108 53.3573C48.4697 53.4563 48.5652 53.5281 48.6767 53.5574C48.7881 53.5866 48.9065 53.5708 49.0065 53.5135C49.5967 53.0953 50.0244 52.5551 50.4858 52.0075C50.6881 51.7675 50.9108 51.5465 51.1147 51.3082C51.3592 51.0248 51.5456 50.6962 51.6634 50.3409C51.8939 49.6559 51.6959 48.6897 50.9073 48.4736C50.1982 48.2793 49.3792 48.7696 48.8225 49.1601C48.7251 49.2205 48.6546 49.316 48.6255 49.4268C48.5964 49.5377 48.611 49.6555 48.6663 49.7559C48.7253 49.8549 48.8208 49.9267 48.9323 49.9559C49.0437 49.9851 49.1622 49.9694 49.2621 49.9122L49.2618 49.9116Z" fill="#211715"/>
<path d="M31.2986 22.3496C31.8206 22.6195 32.402 22.754 32.9895 22.741C33.5981 22.7669 34.198 22.5901 34.6952 22.2382C34.7763 22.1562 34.8218 22.0456 34.8218 21.9303C34.8218 21.8149 34.7763 21.7043 34.6952 21.6223C34.6121 21.5433 34.5019 21.4993 34.3872 21.4993C34.2726 21.4993 34.1624 21.5433 34.0793 21.6223C34.2112 21.5196 34.1078 21.5989 34.0741 21.6207C34.0403 21.6425 34.0049 21.6626 33.9692 21.6813C33.9396 21.6969 33.811 21.7479 33.9298 21.704C33.8817 21.7221 33.8344 21.7403 33.7847 21.7564C33.6527 21.7982 33.5176 21.829 33.3806 21.8486C33.4444 21.8392 33.3659 21.8497 33.341 21.8521C33.3012 21.856 33.2615 21.8593 33.2218 21.8619C33.1262 21.868 33.0304 21.8706 32.9346 21.87C32.8487 21.87 32.7629 21.8666 32.6775 21.8608C32.6381 21.858 32.5987 21.855 32.5595 21.851C32.5559 21.851 32.4144 21.8308 32.5015 21.8446C32.3739 21.8251 32.2478 21.7971 32.124 21.7608C32.0711 21.745 32.0195 21.7259 31.9675 21.7082C31.8557 21.6699 32.0302 21.7408 31.9295 21.6933C31.8648 21.6628 31.8009 21.6311 31.7376 21.5975C31.6373 21.5416 31.5193 21.5267 31.4083 21.5558C31.2973 21.5849 31.2018 21.6558 31.1419 21.7537C31.0848 21.8537 31.0692 21.9721 31.0984 22.0835C31.1276 22.1949 31.1993 22.2904 31.2981 22.3496H31.2986Z" fill="#211715"/>
<path d="M32.7709 18.3635C32.8489 18.645 32.9113 18.9306 32.9577 19.219L32.9423 19.1033C32.9478 19.1423 32.9488 19.1819 32.9454 19.2212L32.961 19.1054C32.9585 19.1235 32.9541 19.1413 32.9481 19.1586L32.9919 19.0546C32.9869 19.0665 32.9808 19.078 32.9737 19.0887L33.0418 19.0006C33.0335 19.0108 33.0241 19.02 33.0138 19.0281L33.102 18.9601C33.0803 18.9737 33.0577 18.9859 33.0343 18.9964L33.1383 18.9527C33.1017 18.9682 33.0634 18.9794 33.0242 18.9859L33.1399 18.9703C33.1043 18.9745 33.0683 18.9745 33.0327 18.9703L33.1485 18.9859C33.108 18.9802 33.0683 18.9704 33.028 18.965C32.9718 18.947 32.9119 18.9443 32.8543 18.9572C32.7967 18.9597 32.7407 18.9776 32.6923 19.0089C32.5926 19.0672 32.5201 19.1627 32.4908 19.2744C32.4615 19.3861 32.4778 19.5049 32.5361 19.6046C32.5637 19.6538 32.601 19.6968 32.6457 19.7312C32.6905 19.7655 32.7418 19.7903 32.7964 19.8042C32.8881 19.8167 32.9779 19.8405 33.0704 19.8441C33.2106 19.8449 33.349 19.812 33.4738 19.7481C33.5528 19.7124 33.6228 19.6594 33.6786 19.593C33.7344 19.5267 33.7747 19.4487 33.7964 19.3647C33.825 19.2282 33.8237 19.0871 33.7924 18.9512C33.7458 18.6756 33.6821 18.4025 33.611 18.1322C33.5958 18.077 33.5698 18.0254 33.5347 17.9803C33.4996 17.9352 33.4559 17.8974 33.4061 17.8692C33.3564 17.8409 33.3016 17.8228 33.2448 17.8157C33.1881 17.8086 33.1305 17.8128 33.0753 17.828C33.0202 17.8432 32.9686 17.8692 32.9235 17.9043C32.8783 17.9395 32.8406 17.9831 32.8123 18.0329C32.7841 18.0826 32.7659 18.1374 32.7589 18.1942C32.7518 18.2509 32.756 18.3085 32.7712 18.3637L32.7709 18.3635Z" fill="#211715"/>
<path d="M28.2439 15.9415C28.1011 16.4059 28.1942 17.4739 29.0737 17.5648C30.2362 17.5577 30.2981 16.2665 29.9067 15.6596C29.5863 15.1624 28.6442 14.9556 28.2439 15.9415Z" fill="#211715"/>
<path d="M37.5533 15.9415C37.6961 16.4058 37.603 17.4738 36.7236 17.5647C35.561 17.5577 35.4991 16.2665 35.8904 15.6595C36.2108 15.1622 37.1529 14.9555 37.5533 15.9415Z" fill="#211715"/>
</g>
<defs>
<clipPath id="clip0_621_13">
<rect width="60" height="60" fill="white" transform="translate(0.304688 0.601929)"/>
</clipPath>
</defs>
</svg>
